<mxfile host="app.diagrams.net" agent="Mozilla/5.0 (Windows NT 10.0; Win64; x64) AppleWebKit/537.36 (KHTML, like Gecko) Chrome/135.0.0.0 Safari/537.36" version="26.2.14">
  <diagram name="Page-1" id="GoPrcmaXFTzMmI4--11i">
    <mxGraphModel dx="1892" dy="527" grid="1" gridSize="10" guides="1" tooltips="1" connect="1" arrows="1" fold="1" page="1" pageScale="1" pageWidth="850" pageHeight="1100" math="0" shadow="0">
      <root>
        <mxCell id="0" />
        <mxCell id="1" parent="0" />
        <mxCell id="9BaGIX8ByUa0XlQMX_Im-25" style="rounded=0;orthogonalLoop=1;jettySize=auto;html=1;exitX=0.5;exitY=1;exitDx=0;exitDy=0;" edge="1" parent="1" source="9BaGIX8ByUa0XlQMX_Im-2">
          <mxGeometry relative="1" as="geometry">
            <mxPoint x="410" y="230" as="targetPoint" />
          </mxGeometry>
        </mxCell>
        <mxCell id="9BaGIX8ByUa0XlQMX_Im-53" style="edgeStyle=orthogonalEdgeStyle;rounded=0;orthogonalLoop=1;jettySize=auto;html=1;exitX=0;exitY=0.5;exitDx=0;exitDy=0;entryX=0.5;entryY=0;entryDx=0;entryDy=0;" edge="1" parent="1" source="9BaGIX8ByUa0XlQMX_Im-2" target="9BaGIX8ByUa0XlQMX_Im-52">
          <mxGeometry relative="1" as="geometry" />
        </mxCell>
        <mxCell id="9BaGIX8ByUa0XlQMX_Im-2" value="" style="shape=image;verticalLabelPosition=bottom;labelBackgroundColor=default;verticalAlign=top;aspect=fixed;imageAspect=0;image=data:image/png,iVBORw0KGgoAAAANSUhEUgAAAIwAAACGCAYAAAAPW2JYAAAAAXNSR0IArs4c6QAAAARnQU1BAACxjwv8YQUAAAAJcEhZcwAADsMAAA7DAcdvqGQAACcQSURBVHhe7Z35k13Hdd8/p/vet82OwT4AiJUgwV1cRMqURFGWykukOJFVTuz8kHIqqVTiPyB/R36Jq/KLq5JUUnHKm2xLsmlJJEVKFPcNXEAQ+zILZn1v3nt36ZMfuu+bN4MBOBBnBjPEfKsuHuauvXz79OnTp0+Lqipb2MIKYZae2MIWboYtwmzhlrBFmC3cErYIs4VbwhZhtnBL2CLMFm4JW4TZwi1hizBbuCVsEWYLt4QtwmzhlrBFmC3cErYIs4VbgtyZk48ajhtDERRZdE7CcSdjS8Js4ZbwhZIwn52R4o6lvywrOxYkzMK16+9aHiu9b7PhC0eYG2dmuavd527W4dzs2vW4tbs3F+6wLulG1XizKr7R+TsTd5CE6cbSO6/veljmXSulzs3ot9lxh0mYG2EpNTy+qJX+eXCHEqaQAWbJ72Ko+n+uv3Ln4g4lDDfshgjyxgEqgMgi+VN0ZoFLdxw2jQ6jy1btYizVTOh+pnPBIaSgGaRtNEsgSyFN/OEUlSCBjIEohlIZiUtIXAITo2IBC2JvkLLlpNL1ZzYjNgVhCiIUHcl1rCggXjJ0/blQTbmiaYZrzaDzo2hjFKlPIrMTSH0GmZtG6jOQO4giMBHEZaj24vqGcP1DaP926BuG2hBSHcJUBjDGdn2x87GuRBapWJSaTYsvHmFUcaqICEYEUUXzHJmfpzk2TvP8adIz75CcO0kpqVNqzWFbDeI8oSKKEwMigMGIwZmY+bhCw5SY7x1Et+8lGjlM5dA9VA8cpX9oGKztIoPiXI6IT8NCr79FmHWAp4qGNgtgEUQFpKsNF4wqkCbgmkAd5i/Dm8/D26+j41fQ+Xk0V7RaQ1QR9VQUMYgRTxZ1kGf+wOFwKIpq7s+ZGKn2IQPbMXvvg8e+DfuPQu82iMpkro0ahyXCEAVlqEhsVzo3Ib5YhOluxJPjJO+/ROPtf2LwwjtIfQrylidEXINyb3hB8VAhCdRrsy4PX80WfrMU0iZkDjQCW6XVf4SJ4XvJjz1E+aEn6D1ylJqBnBaiYIkRurqtLcKsJRYIU+gmBgEVNOgrAlgFNIe8Ac1pOHsKTr5OduptmuMX6E3nkMiADd2NiUK3E5imzn9Bw4EWQ6RApK4uRzU85n8TysxqjOvfRjxyF9V7HqTy8NMwuBe1JVI1qAhxQcktwqwlFghT/FVIhBxInWJFKAmIpnDpPfjgF/DGi3DuQ3Bt6O0HE3tltlPpuT8k86Mll4EmoKmXLOLARaAlkCrYGpgqWD9KQvDPaQJZA0wLkjYkKW5ohLkn/4D8vt9i4OARkrKQAlUgLqTgJsamJYwDmmlGZKBqHEyOws9+AC/+ENpT0GshctBKoDOSWZASuXMoDtU8eL44IEfVgShCBM6iGiESIbaCiA2KrHrCkXuSkXSkVzO1fKI7mT/xde579repHjxEWir7jmmLMGuN0GUsgu+S0BQkh3QKzr4BP/sbeOVVqNagVvYVmrZCZxaGypG3n2RJxIQrMV8ZIundSTS4k9LgTkxtgNzE5CamZh2uMUV67RLx1AXi6csMtiaJ0xkwDqIy2NhLISqePCYFSVDXgOY4svtReOaP4UvfRGu9ZDbCbnJr6SYkjAmnchCLfvxL+OH/Qj74JdR6vX7iQlcjziurLvU6R30G4gocvI/8+CO43YfR4X1IeQAxFYhqaKkKEiOuBfk8ms4grQlk7irm8ink4zfhwhmoNz1p+nZAXgWXAC2QNmgdpM607uP80JepffX3OPrM10mCNrSc5WazYIMThi7SdB8Oskk4+zY8/0P0nV8hJgErfsiUO8gVJMKZHibawnTvLjhwL9vueYBthw+T9Q8h1V6kXPNdjXoFV4JNRdSPjlQdzmVonmCbs8jsNIxdRs98QnbqJK0LH9Jj5jHlIHGcerIaRztV6pnD7j3G4Ne+B7/xHRCDU/FdW1f3tFl6qk1AGBZI0jlyuPoe/Ph/wLuvQJ5ATxladX/NecsueYTa7UztOMLcA19D7/sq/XcdoS+GpKMN+aOYfiw0JF+BimLwWg4LIx0FvXyW/JO3SD58gconP8c0W1AaglIvZLlPcjoNyVUyqTJx8FmS7/wJ+44cxpTKftQXWFJ8dzNg0xBGUXAZkrchq8NP/xJe+GtoTEB/FfK2N6q5DEdEkluc7aU2ci88+gx86WnoG4Euy0qB7rlqT41iLkjDGYN2D67zDLJ5SOZg9jz88ke4N19DZmeRSiXYcRTSOrgGTWKulO9i5siXefA7v48dOYSaCKc+X1a8VrMZSLMpCKOhkkkS4plLMPoe/NmfQmsaahZIPWHUQg6teIix0k7Sux7g8Ld+Dw4eR0yXOiTdM82/ZvbFV6/kKWhO+pO/gBf+H/G1T6Fc9ROX6gmHEcj85Gb+nf+IfOX3YWA7Th1OFItBkE0haTaVwi6RhVYbXvy5/41jfyHPgiHNG91ca57tx49y5Lv/DNm9A5FgbFtNFN/LEmjPEz/+KPGz34Bt26DV9PcY4xngHBiLVnr46JevcOXsRdIcrHiibCZsCglDnqOqyOxVeOvv4M//K9QGwFY65npFaVT38r4b5K6nv83up74OO/eCGrx46cJqSJgAcWEqgRTSBvkHr9P4v39K39w5pBT7iUn13akqTMkw8YmvUfvG7yBHT5BhiLCbQrqwmSSMRBH5tQmab/3KD19JfQt3Cs4hzpFmwt6Hn6T/4Sdh536Q6HqyrDaM8YZBjaE8iDn6AOXf/C0ktl76qHomqCJ5zkApZuz0R0yd+QSTtjra0mYgC5uGMHkT6qPoxQ9wZ09BrS+MhHKIy+SlfhoygOw+zP7Hn6a2e2RhzmedoAJZnuGqPZS/9BV47FnmTQ9JmnXNYRmsySjNXEBOvw2XzhFh/OTpJsHmIExWhwtvYk6/Qrk1szBecTnYMq60jVZ1hPiJb5EfuBcqtbWXLB34UZWzhjQu07Y1qAzDM9+juf0AaRZcImzkvfeSafYzTuXcG0x99I4foflXLD42KNarVD8fnMKFi5iLF4kqtWAc8yWrSQvrHIN79tLzyCPYSrT06XWBCU4MnQLt7WX4/vvpqVZhZsZPTYh4G02th/G5BufPn6fZbq27NPw82PCEcQD1a34mevyU1xlcXzCkzDKrbT4aPML7D/1ztLrbS5Z1KHxFceLIxZEbhxOHRYnEklV2wuC98PCzsPew7zrb3vEKcZDVGTJNts9cITn5hjc8FjZJNrZCs+EJk+bg5uZgfBRmpj1hCEaVPCFP29QGBjl6/8NIZ57pdiD0JQIi1idj527YPwJDA4v0GPKEijWgjvHxcU+QvIswGxi3nTBLu+7OoQ7SBrY1joyeh2YLKj2h9SVgypD3E9V207NnD7XhCirZ0tffBJ9fWRAN3n9dh6i3DYuq9+w7/Bh64BFcW7ykIQbpJ4p6KDdmsRc+AtcmN5DfTr6vELedMCwlSudQyJpE2SwydhGS1I+ORP2Q2kSQVakOjlAbGSEzKVhvuFsPeMtsYT1ZbEWR4GdDbmDPcdh9HFphUhQLtgdjKsTNBqWJS5A0cFZRs9j9dyNiQxDmphDQmRmYnw/2jHBSDIkqZnCQ2q7dXRV4++GnktTr5T016OvzVuqiORTDIlXIMpibw6jz2Vofvv/a2LiEUYU8hXSebHqCvN30Cq0D1JBLhbF4kOnt+2H33utWKN5OOASVsK6pdwgd3kU+MBBmxLyiIppTS+cZqE/C5HhwOt/42LiEoZD04hd5qP9/55IIpSgiqlSgVPbzMl3XbydEZCGpqphSiah/4LrhjwJZlnnpuQlmaNjwhHE5NGYxSSu4HYQCVyEVS1rtwVV7wEYd3WcjoDM9J9YPpWt90NcLrYafiAwwLqOctSBtbxFmVaAKaYLkQVybhRbqEDQuQ1yC4K+ykeDTI540NvKGu6x7FKcYHJFmaKu5QLINjo1NGEKXpOrJYsI0s/ihqxXtysD1o5Vl8RmXbwU3reLiYrBIw+IutfhbEbQdJik3ATY4YXwhKopavM8uChJ8YrMM0izcF5a5dvNmuWOVUNCgMMF0v1+QW3OJKox6mwAbnDBdEBOsvMXfXmHMszToBZujwD38Ol8tggbUaluEWSkkJOL6Q8BWYXAvrmcQh0LW9hdFiV1OrVEnbmdABeMMoivPjh/J/HpHIeFEFmw/Gqy+BsGqYDSY+5MM5howO+fXRRkLRCCWFJgxDqpxZ3J9o3dMKy/h2wIBG1OqVIkk+L9EflWPEPSD+RbU5ztLotcDN5MFi66pl4yapOjc3IIUEQNiMVaIYgvVCojxHdjNXr4BsAEI09EGug4vRTAGbIzt6cOIgSTp8pNtU9UG5alLMHaJNAIXIjp81rEm6Pr2AjJIZ5D6GNRnQUrB77iJapuWVGnV9kDfMGJ8sPqlb9ho2ACEYZkqDbYKY/wC+L5B73yUpv66NUjeoubq2GsXaIxeIgGyENFh6duWO1YbEv7R4g/Bd6HXLsDYOWi1FggjDTLXpCVV2r37oHcIEYeQBdJsXGwQwixFIZfD79AQ9PaGcBx4PUAEIstsvc7k2JhfObsBIl5q4dsFfmrj0gX00kXfBIwJdDXkTjFRRO/gIJQrG78vCtighPFDZ+KaX0144Cj09kG77Zejmtgvtu81aDKOOf0WvWc/Is6SpS9aFxQThoofYos4aDehnMKV95Bzb2Lj3EtLFEhoKUz17GR25H4oDSJqgnRxG9o5ZoMSpgsKDA7C8DCUSz4OS2FvcQ5UmZyZ4eSp02D8co3bDjFQqcLZc3DunF8KUwt+xsGQl6ZtynHM3j17w0OFWFqrTnN1sIEJ410YMAZqg3DgXvLdx2gn4n1KjAXn6JWcfXMX2PXmj2Hs02VnfVer+Iuq7D66rznAaQ7pNWidgfeeh9Fz3mddczAKtgxaw1W24fYcINp/IMyFFQaFIr7DhqD+ddjAhAljTDG+C7rrKHr4OC4PGqXxhVqyypBrMDx6itm3XyPPV1GUL2XF8qcWnVeDD512+k3Sj98kb0xBZLw+A35eKYXeoZ30HT4CQz1h5Fdoyt3HxsPGJkwBNbDrLsyhe4grNb8UVZ1fVWgtxDG5QP2d19DzH2FcG8Jig25Bf8tYYZ0JILnD5A6btmB6Al59mWxsFEcEpuQlX97CGcOcRsR772L48GGKNQ4bxfnrs7ABCCMhGTc6ANsPvccw+x4nOnAMpsf94nsjviPQNlbr7L72MeYH/w334S9Q1+oETlxuqL1iO99K6lEFm6bE89NEVz5BX30O3vxHqmmduDwA1HwY2GyUuhE+HjrC6LEnYORI6MYUQpQIF4Kndad7I2EDEGYlUK84DvTDiRMday8SZq/Vh3tvpxmfnD7Lpy/9grmz5zqaQHehr6T+bwWdYbSNIHdkZ84x9dxP/Ax0HIeuRiGK0HKFuZkZ7jl+N/sP7A8x9vw0xWbBpliMr75UIZtHrnwIP/0L2q+/TKwNTLRgYnUmIhFLUytUjj9K9ZnfheNfok0V16UZFLKr+P+ib62wVQuBLUkL8gSpX4I3/gF9+Yfkc3Uiq0GhET+aczlZFHNx23F2f/8/Uz5yP5mCjUIEihtgo2kzS8trYyL466qJYWA7PPYk0eA2JFc/vySAKMalVFybQdekffYjzr/4Ey69/x5FaMTCurESQtBFnhuRSESQuIyMj5P8/Gckv3gOuXaOKMq9xDESRkcCNkLaGcNffppo32HUxhhze1Zpfh5sCsIUrUxU0Eof2V33Yx/5CtKzDdJwh8tBHaoOKUeYtI77+A30p39J9MqPKU+ep5LPUyLDhpBkN2q5ne8tPZwiLkdcG8nnoHEZPn4ZXv979M2f+cV25T4f49dFQcIoicJkaZCZY0/Q98AT2EoVANPlQbgcbn719mBTdEmdJi5+vqgF9IyeRH7wP+HkryCb9SFPjSWLIkzhXpA5H8yu1k/ytd8lO/4EZvt+Sr3DPhji0u8UWK5EJIiorI02RtHJT+HKh5jXXoArp/y6KVvxC+xc7EPLawt0jrpUuDryOKXf/rfsO3YcLVXRz2itNyP07cQmJIzSRqnNX0KmzsE//RW88jPojSHLyYzB5Ipx+MVutgqmxOm0wsTOQ/SfeJQD932J8q59RKUSRNa7SYb9CwojcvE9dYpzYI16UszPkn74Ou1Xn8OcP0ktr0M+G+IAV3xMGmehmaORQ9vTyMgh5Nk/gke+BeUqzpbR4M5wI2wR5ga4kX4ABNfuxVdzhBzBkqHOIRc/xL7wN/DC30KlFGLz+mjemOALnCXk1uJyh7QTbFRBDh+D/cfg8AnYs9+HmJcQYcFpkCYK7RbMjsOl03DuIzh3CuYmUSMQWyTFBxPC+VD0LvOL6yPDqWYvY3d/k13f+C5HH7iPDPHdUNeoKPDyOmwR5ga4nhILWEoYxa8W8ITx501zArnwJrz6HPz8BW/Qiy1E4gmjIcgzeD3HhSqSmKQ0yGR1mHxoB9T6yCSiVK0iNiJuZcSNNqX5eUrpDKY9Dc1JH4hRHMQhulWpF1LriULq9x9IGzA1RvPR79L+1n+gdO8T1GJInedv9yh6izArRPHRpR8v/l4oMH+mKLzCsEWxB4FrQ3sOuXaF6O2X4J2X4doVf17ysMogmHwlRE9AoJ2R5dBwBheVwEbkYohjH5fOZjk2zYiyjIjM79ZnXJgPEk/MNIGo5GMC45nQNmVG+3ZTOnQ/g498lfLRR5Bqjw8frGH+cYny0iFGV+avI8vSgvosXPeC1cFtIYzeIP9LzxV57m5txbNFrN1QVViglE7DP/0f9PUXkImLvosg+M4satbBrlO4EHSsbyEFql3GmjCfRZjvKRKpYRMuwu4nasFZ6rWdfHri21T+5X9iexVq+D0yIg2fE3Bh0X2RJMNNMs8y11aKNSDNzRT1DYPlCCZOMZpjXEaUtYjqE3DxFFQtUom8/cMVNprut3SRovNnIIWEjT9N5PUZtV4cePu9j77gwqHq57Gikt+/wFpQR0kc+0s5uyfPUZ2dIkrmiSQPOlUgTLFQP8RL3EzYEBJmSVVeh6JQC+usKJDMQ1KHZBJGT8HbL8Pbr8LMOBThTl2oVLELxFj01qWhwsL15WpRin/Cc91HkTB0YSifWbjvcXjiWTj6gN9cNO4BjBc0Lujn3KDZdoh+k4L5LCyXj8+JDU0YZcHd0RT9uvPeArTbcOZDmm+8QPbuS/RNnYeq8cGGisp1zkuFUiWUXuhWOpUfJEXx4eKDi3jVNdYOG1j4GwubcRG+g/A+vBKcW+qlIc717Ka+7xhDDz7O9gcfY6in1vnWomCI3QRhizCLsJQcNyo3DSH7bZ5iXOYV2XQaufopvPUrOPU++bVRXNokNkGjsaFC1YWd17Iw3MYPd1OFrAxUSRUSFVIVMvVDdk8Oi5UcS4JxKdblxJJTMiBWPWMLv2JjA5m6FOsQFSjLDQ1nSaMK5b4+ytt3Unrim/DAU1AZxiFkGhEFC0An46tV0av1ni5sSMJQtL5Q9jaY5Jm6DCdfhNd+ApfPwNykr7xq1YugdohMJYTWnoK2/XA3a4NrASWId0HvXvLeftJaP1mpQm5jXFwKDtkRRtvYZAbTnMW0Gth0nrg5B/OTMF+HJPcjrqgEpZL/NWGorYG8xTY8We4jNADXDj7K9EPP0nf/l+nfe4jclKgQgmcVWK2KXq33dGHDEaY4IU4xZH4rmrQBY5fg5Ovw2s/gzPtQjaEcAWFfag0bfMZeX8lyaDvIjEHKFWypjO3rJx4Yxg7sRAd3IYND0D/k/W9LZX+UK77b0QzadZifhVYTbTVgdsoH/7k2DjPTZPMNTLuFa81j8gxj1A+orHjCOg09l4LkKMrlpMRobRfb7n2M3Y98BTlwN+W+IW8lXhKvrFvo/Fr4XA8vjw1BmOJc0cgEEHXY1gw0ruEuvIu89LfIu7/yN2wfhnYCImjuIFPEWB9SvuIgtTS0h7HKDuaGDhEffIjyyHF67rqPvl01qhHBiuOXpXSXa9hoBw2mwSKdReVJMMe4mWnmr5wlunCa9NRJSldOU567jMlnvVHPBnsN4u1B0gJJPSnqdWhb2H0c9+Vv4R74KjJyAhNVOhKW4Py1aMh9IwIsLcwCN7r/c2DDEKbb7UCCldfUr8FbrzDzD39OaewjqlX8CCgN22OJ+DkcE/uH8wZMX/Hb6h19GB58Cr37MajsQqJBH0IsEv8lCT62S1CkTfGO2d3p7JhmnA/5Sj4PrTnImnD1U/j4dS8Fz52BSuTTGkWhf216r7t25mPJVoZpx8NMREM0TzxJ9enfZXjPfipxaSEdcgcRZjlSFCjy0Z2f3DkwBpPWkWwGpi/Dy8/BSz/CkQOCyTJPEmu9U3UJMCWStmUij7m2927Mw09z4N4H6du+wwcbKlWC8a4Yu660FMMaxK5MLH7S5zBHyXDYPMG25pGpUfj0XZrvv0L2yduUWxOUSsZ3OTk+TUkbVNCoTG7KuCxCRg4Tf/cP4e7HSLTcIUyEF1YCXcOqQtatP24bYTrZVVB1ZArGGr9h3uWT6Es/In/1p0RzF4IiWgo70vu9h7A+ojapkg/uo/XAU7Qe/Bpy4BF6B4bw7bTrI4tSs8ICv1EGupCLN7tEYYs/3DxMniEf/xT3yRvYk7/AXDwDWQR92z3Zk7ZXsooVEXkEUY2zB+4n/8bvs+PBRykHqRvhrcRC9/B9helfA9wWwtCVXb9tgEPSFhLlmNFP4Fc/Rn/5E1y9gY2Lib3CZuIjOsxQZr42SO/IQfrueQBOPAx7DgN9xZu7vrYUKyzwm2SguKTiBUdnoz/NPJElwUxe8dbnj96Fjz6AyWtenzFhNl3D5JItQw4Xkxg9/BA7n/kdSl96irqWiAVK2hVpq5PsFaR/DXDbCEO4Xiw7K7VmYfwj8p//NbzxI+z8GPQcgKQWjHFtT4IckIirO+5n6t5n2P7o0+w4uD9UWrfR9GYp+DUJ0/XI0rcv1cEcEGe5j887eQleeQ5efR6unvEKcNl4pThP/YOClzSNDHfwPub+8E9ID3+JGlAGbNFYupO9giysNpYzSq8bNFjmxGWQteCXL9N+7VVa9Rb0bfPb9In3uMdGqInJ4iqu1MvuZ77Bvd/6JjsO7EHz9pL1yEurc21R1Hd3/VmC8uFaUInhkUfg+9+Ho8fC3tr41Y6FrcaENVY9fcxNTvLpX/0FOjWJUee7IyUYI9cvX8thXSVMd6GqAlkTaU9DfRxe+yH8/C/9IrXyoJ+OzrzbJXEVEsd0XuXCwUfY+70/ZmhkNxIbFIMQdQx9N++KCiyt3htgaQa6seTx5fK7gMLqnGAmL8Lzf0/yyvPozBjl/kq4FmRtnqFq0cowMrAX+YN/jx56EBdGgobFE+/rjXWVMKrg8pzcOT9ja0NLO3OOiRdfJG3WfYrSNBghwrhybgZaTfruOc7R7/8BA/vuQqIYp+4mlbSRIKgY1EQ+bMljjxM/+WXiwUGYGF8IiphnkKW+a1UlGx9j9KWXmRm91ikOQjmuTTP/bKyrhIEOa3wbz6bg9AvoX/13muPjVCKLwfqVAEG5xUSMax/2ga8x8PRvYw8dBRvjcoeiiBEfnarztWW/ugSrIGGWwXW3FxWMAg4lJ2vOEVnFzozCWy/jXvgHWuOXqFYjxCVeGsUxSIlcI64ywOA3/gU9T34DN7QDR9wJwrWCHKw61lXCgJenRgSxETpxifytf0TOPk+t3PLrdJzfR6gzH9NuIw9+GXn2e+jRe3EaFn6JwYjFdGaPb0jRdUNRid3H4qsGjWpoaQjdcQQe+Qry1NdheKcPnijGhzQJm3BZnaM2P87kGy8y/cFbGHW4MLK8XVhXwqhqcB5KoDGO+/Bt3LsfQM8ub6dIcx931ynOxMzbHtLdd7P9N55l6MA+ItflpVbsLixcVzU3xy3cewu3rhSlOPaFniXQM4A8+iS1p59FKr1+OkKDIpwBidLTU2Py4mnG33sNrl31k/FOO8G41hur3iX5uZiFVxbb0ij4neBRouYF5O0fw/M/hNNnYLDfe+hnQWGNLc3qIKf6H2DPv/kvDOzspxT5Cuz4cC+tT+X2WUJvVoKLAjW6Tto6UkhzmDoHf/O/yd7+BZJMYsviG5Cp+CmFuatkg7tJvvqvqH7334EaMiKMET9dtY5YNwnjBYFgxPoAgR9+DJevQq3qu6Bi0wZjoNWkiuO+b32T7TuqRBac89JpZSOE2989fRZUFedyXOYnUfn2bxIdOog1wV20s0G6Qq3GZLPNh6c+4ezFSyHSVpd/8Tpi1Qnje2owCEZ9LP020NYcm0xj5s8j7/zcr/HJ296lIBPvHMUUM1HEh7uf4ORDf4Q98RRainHizeJFq+z0REs/3PX1Ze5Yf4QkdKRJCCjvTwZiRCXo2wW77oev/BYcvNsv8Lc50PCW4ajKYKnMkbEzDP/dnyEzlzHGwW3Y8m/VCbM4C75w8uDlj8uQuUnm332TdGbSz+Y69QF2JQeb0Eya6J4jbP/qd6BSI1VFxS9I20xhMVYEEVQsRGWwNTh8Nxy8C2LjHb4iQjcrlKKYvqxF/skHzL3/HnnSDt380peuLdaAMEV7Cn+pnzyLNIf2HHz8Nu7iWd8FxbF3EyAltzVm3DbYeYyRE/ezc08fzik45zfj3AgSY5XQnROhsKs46N0GJ57C3fdVUq12LMJ+3iHH0YLWBO13foHMTPjK69p/aT2wuoRRvP2kc3jCxAqlNIGpi/DyD+htTRBH4dOSoqZNy/RxWQ5Rfvw79D/6FG0gM4LB+J1bv2DoblYqFicWtYNw/Ju43/jXJNsP+6G2hoVMWUKUTzKUX0IuvEN25QzSnMOIH2r7Fy28f62wuoS5EQQ0TeDKFR+K1AbHIhdcFeISaZayf2QP/ftGcCEcBqoYIytUdL8I8PtcRkP99Dz8kJ9LM8abeMOOtK5cZbYxz+jZszTnZhETrauQWV3CLGh3CwOVLEHSWczYx/DmLxeMJ068t4daXCactgOMf/P7tI4/gSNGHEQIVpdGfluHZnQbIIDaiCyukm8fgYcfg5H95GpxUvZrmqSKsX2MRMKO91+kfP49XNZc11JZXcIsRZdWljfmmT971o+KCohAlmLbLQ4fPcq2AwcxcQll0W59dxAKTS1YfJ94FC3HaOb8LrViwDlKUcTU6FXmL1/CzDf8QoV1YsyaEcaJX/ynJDB7Cbn6IbZxLfjUZuCaqGbMS5nL0TaGHniCSt9A53kvh7q9zDYhCikb0K23LA//gOCgtA3ufZZ82z40yhBphEKJwWXUWjNEl8/CxOhCJS753lpgzQijIVqUMzmMn8Gcf48yLb9iS3LQFs4lNE2F2W0HcIfuJS8tBC9csKQUpbDGJbGWCD65NycLoctN/Y2VYRi8Bxk55g2++VyIlVeCLGFIWpixi9RHRztOaB2sYXGtGWEoKt0YmJ2BsbEF66UCCGnm0KjEzgOHkIFBMCEq03KZ1ZUV+eZGyKOEsCSRUDp4CFPtWZicFLxlPIqYqc8yPT6By0LJrEPxrBlhrIOSw0flnjgLVz6CuIh84HWbhlou9u9j9MTX0eoOShjiIlHa3UxCQX6BSaNBvjjAicWVeqFnCO5+wC+bSQud34FLwLSx8xNURk9TGbvgvRa1q99bo2JaM8Ig4e31BkxNhQ2mwufEe5YZVfp6e9k3stdHKC2eXU7C3DHwme/U9+Ag7NgOlbL3QCQ0prDB6Gy9zpXRsa5lNGuLNfqKtyeQJjB2HqbGfPMQ50vCxn5RRtyL27aHbHgvifHT/hYwEtrbeqn+64huAXD94TcwVgx5ETDJlmHvMfJt+0mSELxIFESoiKN3boLy1bN+Xg5f9IVs7j5WC2tDGCU4QGVwbQxmp4t+JkgeH6SnVKlRG96Fq/XiQgvxg6LVzOLGw1KiXH91oYvCAbtGcNt2kafBQhcsmbFA1GqQT42FpTjFMt+1IQtrRhgKwuR+AXtz3lt2O6m3ZJSI+4bZtnO3X8BIkbvVzuLmwQJ5ZKG6ncLwLnTbTpwU5/2PtQaSNsn0Ne+QtQ5YI8JoiOUyC9Njfju7uLTQxZgqdbuN9vBhqnsPEYWEGB8x198Tmt+dRR8/d2ZCxyRkPnRa/wj58AGySk/Yd8mBNZhI6Elm6bl2EZqzOFG/s64W8mn1S2+NCBOQJLgk8TOxhedyEJyiDqlVYdtgp2WtfvY2N4RiY3Wo9vYyMDTkt2LujCB9IKQ0SXxEiNAgr+/mVg9rRxiXQmsW02wiWQzSB+qXhIqWadoBmtVhqA34bWqCeuNlTLHwdEHuwBqXxOfBUqVkuWOF0KD4WixGrbfsEkO5DFULOuejg4qPqmWlQclNQWuSTDNyFCfBgT5U8C18/jOxdoRRv8dR1m6Tp+ozHaJSZmmOw4ZdVlfo6XLnTFn7UbNTv1uLC4OEUikEUMq9H5Hx+zOJy8Al5NPXUM3xXtMLUW5WG2tEmBBjLk8haYCrAyEmv2mCaxGXSsSl8iIHoCKLNzq+yCiaQ/GbA7kXsD5AUaXiQ4YkLgSYngdtYjWnnAPzKU4NButnX9ZoWe0aEQYfX65VJ2pPY9MJSEahPQr5BJE2KFdKRKUyqOsMpZcS5E4gCkt6LqXwmRIyY1ArftF+ZP2FRhuas5COQTZF1G5QabaxKWhYpWVVME59oMVVxtoRRgykOc4ZnIv9QRmnZVpqcXEJE0V+2Hjn9DafietUnyKoYua8Z54t4XKDSy3OWVwuuHZK3m4jGrS9wsF8DbrxVV+X5KE+GsPsGOffeov6xDUqpTKoYG1EXSGv1th15Ci7jhz14U5vMk8k4Hc/W3rhi4YusVrM9kdZiqgjvXaVmTMnmRo9h416MKbqZbK2SVEaPdu45+lnieMKDtdZD1Z4Q9+4dG8Na0eYvA3ZPO1mkzwthKUgYsiDd1RcrhDXquQSgu/fIEt3HGGckjtHZoUSIM6h6TxZMkOWNxCqIGE9l7RRceS2QqlvGMQHcyyoUixsuXHp3hpWnTCdlwVLr18aUpREkeSwK2wRlfQzsnOnECZwhVwVzR3WmoWVjep3ivJb+kjQJjTM0QHE+EgyHdNnoM0CWVaj/FaVMAUtiv8DCIriQ45JJzOF+h+yoAWplsedQphi/ZbDD4TKYaGa4gc8EuLD+FFCt9uUeJNF9/2Lr64aYVZV6V2UqDAFX8iP5ZPts7UGutmmhHQ1pe4100IIlSP4bqgjrbvKs+v+pWTp/v28WFUJ042li/IXYylxbo5bu/sLguVqfQXoli5rUW6rKmG2sIpY7ZpeJdwmCVNgZQJzLVrKFn493GYJ81mE2sJGw20mzBY2G7YIs4VbwhZhtnBL2CLMFm4JW4TZwi1hTYfVK8PKBswru2sLa401I8wWvpjY6pK2cEv4/+F+CHLgikSFAAAAAElFTkSuQmCC;" vertex="1" parent="1">
          <mxGeometry x="303" y="100" width="62.69" height="60" as="geometry" />
        </mxCell>
        <mxCell id="9BaGIX8ByUa0XlQMX_Im-26" style="rounded=0;orthogonalLoop=1;jettySize=auto;html=1;exitX=0.5;exitY=1;exitDx=0;exitDy=0;" edge="1" parent="1" source="9BaGIX8ByUa0XlQMX_Im-3">
          <mxGeometry relative="1" as="geometry">
            <mxPoint x="440" y="230" as="targetPoint" />
          </mxGeometry>
        </mxCell>
        <mxCell id="9BaGIX8ByUa0XlQMX_Im-3" value="" style="shape=image;verticalLabelPosition=bottom;labelBackgroundColor=default;verticalAlign=top;aspect=fixed;imageAspect=0;image=data:image/png,iVBORw0KGgoAAAANSUhEUgAAAI4AAACdCAYAAABiv0A9AAAAAXNSR0IArs4c6QAAAARnQU1BAACxjwv8YQUAAAAJcEhZcwAADsMAAA7DAcdvqGQAAEGHSURBVHhe7b1nkGXHdef5y8xrni9v2nt0wzZAeMKJAAEa0YsUOZQoibIjjUJSjIndD4od7Wxs7GysQrGjCXF2ZkdcSaMRJZICCZIaAiThvWXDN4D2prrLu2fvvZm5H/K+V6+qq9Hd1VUNgKh/x62qvu/dvDcz//fkyZPnnBTWWssqVnGOkAtPrGIVZ4NV4qxiSVglziqWhFXirGJJWCXOKpaEVeKsYklYJc4qloRV4qxiSVglziqWhFXirGJJWCXOKpaEVeKsYklYJc4qloRV4qxiSVglziqWhFXirGJJWCXOKpaEVeKsYklYJc4qloRV4qxiSVglziqWhFXirGJJWCXOKpaEVeKsYklYJc4qloRV4qxiSRDv5xBgmx6LQaTHKhbHqsRZxZLwvpE4zUraNknydhUXgDBz/zHCYhCY9G1TgLCAbYCtg9VgjSvVpkdLpgkQHkgPpA/CBxHM3aztPu0PaNPfgkXE45nE4Zk+P0+8r4hzLhWVtq1DJWhhSJDEgAeEad8k0xOY6ePo8jSmWkFXy+h6DaIGWIPEkiBpiACdLaCK3chiFzLfQ9g1QL7oOxI2bzyPrG1DZvvznO04ejbfWSJWifM2MNZJFQUYDJoIrSNUbRp/chTGR4hPHkePj6DLsyQVd+hqkzgWKQQJgor0MJkMqtCJKnQgi91ke9bQMbgBVSoiu3ugowuCrGOqtWjhel7QlG7uudLTZ8bZfm8JeN8TZ7FzAAkQpUNSLgYadezMEZg6iDj8Arz+KBzcA1UPKIHy3JdlKg6EdAfSjW1Cg4khiiGK3DikLeDDtt2YS64hvvhq7PqL8Eu9KOkTIVojl2wTNJK3efB2rBLn/HGuxNFN4ljI1iIYOk79uZ+gX32CYPIAPmPALKgOECWQyo1vgpQwou2m1pVoEyfGtHHDjhVgFKgi016JN1QBc9UH2fRzd7Fm/Saitp5fJc47hDMRp9nGMn3FbWMSq2cQowcRzz0Ezz2ErdWwFoQfIPyMk0c2TkmRFmbSUlsFp39YATKdxIomBVJyGYExksjGQIxX6sDbsRuuvgU27MIU1oII3BWLVeJ0WCXO+eNtidOcBAFe00ARzcCeR+DJH2IPv4ionoAw5w6ZBTJumLF1rIgQ1jgxZVLS2FT6NMuz0kklmgRqEkc4shnc7CyaAQFJ50YODWwje9VtFD9wO9l8CR83eRNna0RZJc75o5047e3pBIQFYxE2RupZmByCl56GFx6Ho/uwNBA55fQYUt1E21SJlVgEwgiMFcTGKcOxFSBBCIEU4BmNiBuE0iCkAV+Bkm4KL5oPl2BFjECgRYYTiSJcu4PcjivJ7v4gcsulYMP5tWhduwArSBrej8RpDhLYuZddWIvEQlSGYy/A8z+EJx+GmSkoFSFTcCQxGpIYTJQeCeg8yAKEJXS+RCNToOGHNPwMeB5IgW8SgrgC1VkKtQlEbRySqjMUSQNKuDFSgpEWay0qsZAYiBWILI3dt1C/40tk1l9BqDw3TK4wOd4O72viNEcIaRMkGsZPwAPfgofvBs9C6IExbmywuCuNxliDxoJSeF4HomMABjfA2o3QPwilLih2QCbj9JmoBvUyJA04fgCOvAFHD8L0BNgYq+sIEqcyCQtGI+KU2SIDIsOwLTK04QrWfvzL9G/ZgfCakuedwfuGOLCISLfaHfEUnHgNnn8QnngA/MQRxjaV17QTbQZMyLjJcKS0HnvJdWy/9hoKm7YgwxBrbZuRRcz93dSVhUU2y6qW4cRhzOvPUfvpQ+RG9yFCkRqNYjetl+m9gxAbARULg9sQv/8nmJ6NWGRL6LReiOYNsa2Xpf3T+d9bOt6/xLFmzuYyfggevQce+T74Gkx1bubTnD5bIPbAL6IvuZ7oujth7U6CQgGZy7UV3Ia2+zWXD1oW6UYMjUmojWGmDyFffwKeehROHodsCB0l0CmBlQcihDjAqBIHL76VwS/+JrlioXWLVeJcCFgwcYzU0yBr8PA/wUPfg6khyGWc/iI9EApEQGSzHCpr8juuouPqm8nvuAzRPQh+znWQ5Oy7I7VGYzVGJxij8fwEpsbgwCvw8hOYN18kqU4T5AJngTZJus6VwRiPEUr0fvjTeFffjOldDzJYMNOaI47DKnGWDSZOkNVjsO9peOB7rtPyChLtZjtGpHPpkLLsZmT9JeRuuIvs1beQCwJ8k5qXJVi1sPS3gXU9J4QTelo7HRoBxBU4/Dzm2ftJfvo0QX0WfOmIbHELpVaRiBxT+X4KH/o0mes+jC50zJUvSO3N7d26/MQ5W4vAzxykkpAY7Ct7sSOTEOScFVf4bhlThjRsyIwq4G3Yzta7fp7By64g56nmC+3UnqX0gk1n4SIlTXP4SmIY3Ii8/jaCK64FEWC1xErfSZyUC142ZHbkOOXXX4QTR5ACrDaY5pB6GiwXaXh/EiftNZtAI8bkutG5HkziQ8WACaGhILuG4dxmhrbeQubzfwiX3gr5PnwUvnUCyXhgZGq7a73jzb8WHimavde2ItEiYLYTCpth4wfh9n8GV95BIjqwke9uhgBlYGaILd4Y/usPM/nCw9Co4pkGAo1wVqW2RQr3c+5/y4P3IXGaEJAJUbfdivflLyE/chesG4RKGYQlmRxnzdpBLrrpRujpcj28nC2/GKx1C6CNOuRz8KHb8HdsQ1oD9ZqzOGsDSQKeRyIVJ44e462f7gEEQkisdXaglcYF0nEWvHWLwLa9KyvRP827t35bi4ki519lE0SjhpgYQ7/+Mscef4hyrpP+D32EvqtvwAoPseAdM6nEaKL5zE6/WAynO99sHYEUAmGc4mPRCGHhwEvw/W/Amy9CRkIAVGZBgfbyzKoS0Y7d9H/1D7CqE20sQkqUOhfF69xxAYhzZtLQRhzapPk8s8h5YuFT2JZtxc24Ec5BS0yMMvXmS8Rhkdzmi8h1dSKaM6E2LCQOredeeLaJhU8wh2bdW8NJ02FLCSgPw+M/hCfuh7FjUAigXgEdQ5inpj0q3evp/aXfgw1XYDwPa61b6mguqq4AVoA4ixV35nPNZm2XODad2bRPNS3QMFBrQCNKOz0lgjYGqSQZHzIBhD74c5e67xkN1mKFQEh3pyRxq9tKgrAxQhinIAsPjUIKUlnYVs4pNWg+98KzTSx2RRNtL03bgqsQAhFNwehBeOxeeOrHIGrO/mQ0BDmiRFDxSvjXf4zsx76CyuXQWrtlC6UQy/XmLcAKEedMRZ76HYtpmawcTwTgYWNBHGnqjZjZaoPRcsTwjGFkwjBZjoiSBBAYY2nENfzQp6eYobfk01eU9OUV/SWfXDZDmC7xOMOfdTpDe7tai7YglAdCpFLGUVmc9ZL06XBqnecwJ6uMW29tPZ7UDQR12PMw/PCv4cgeKJTAD91MqxETx4qj66+m57f/LYXuXjAGa8z7iTjp79Qsb63P1MQsBw8MceDAEHv3HeXV/cc4Pj5DLdI0tKARJySJRkiJkBahIOcLcp6lI6vY3N/BpVvXcvlFW9i5eR19a/vxOjuQNtUhpJxHIKsNsTZIKVHKQ4imrnC+HXBqnecwRxxLutqRDtMqqSFEA07shUfvhofudsTxAmegjDV17XGw91KyX/ojBrfuION5aK0BVkzXuQDEaf692G3mvmvxEWnjjSXw0n7LA8++xQNP7eHQgYOQJBTzBXK5LCodYqwx7o2SAisEUkmMtVjbVBKgkRgmp2eIa2XW9Hdz8da13Lh7B5+840q2doM0sZupqNQzHKf0mLTnhFSptDlf4pwZrdZoC5JQWPds1TF48V64579CvZ6OqwJMQmwUI7mNBLd9mq5rb8XrHkRrJ1Xf48Q53S1smyYYYmPNc68c5J8eeZVH9xxjqGqpB0VsovGswRcSJcETFiEFnhTIlDTaWizWOZin+osVishKao0EE9fxiMmJBl1ejU09Abdfu42P3XgZAxvXgRc6075QYFJzfUqcpkRYabResXnESY0mySzsfwR++Ddw6HBKdAEYYnyGvQFmL72JTR/5NLmBLRhjMcbged78mywT3kHiuBilBEkdwWuHY+574Bn2vLyfg0dGmJiqki92UCx1I5UisZokiTFGIwApJTIdw7W1zkXCGkwaWdBco7RCgVRILDaJMHENG5UhqdJTDLlo0yC3f/Aqbr3mYtb3Zd2zamfit+l61QqpCS0sbC1I36fUuowATBUx/DI8+U9Ej9yPLzUilZJa+kzSzXjfdjb+4q+R3XQpsQW0xl8h4qg/+ZM/+ZOFJ5cfTQUibRYh0ybyGI3gkVeP8d9+8DJ/9+OXefPELCLI09HZTVeuSCbW2DgmMdpJGT9ASg+NIEoM9UhTj9MjinGRTI44EncbYzQmSRBC4IdZvEI3NtPF0HTMnsNTHD05hqnO0pXz6O3qcBEJyNRZKiXhCmPhqyVJTQCpVVmYBKHr2LhK9OpLeCRzpBISKzI0Ikvx8qtQPWvRws0D1Qo9/PlOFc4N1mLTYcBYyeiM5slnjvA3f30/P7nvPoqhZMv6QXo6S3hKUY0a1KwmTg0pAoOyMZ5t4Os6flLFTyoESdkdukKGBgENlGkgTIzAKYlSSlR6CKsxcYO+7g52bNnAyPAIf/eP9/D1v7+HF17dTy2yIL3WdP1CQzR/tN/eGPA8RE8PfhjOfWQtIrXbxFGEadonVnhwXcGharEhSgKSOjA0C9/43qv87bcfRAcBGd9DpI9ihBvGjBAkQhKgsdUZoukRZH2Snoxg45pe1vZ2UswFhJ4kE4aQyXFycoZjo5McH5thvJLQ8IrYXDdhkMFPFcX2GYfneaA8ZhoR09NjbMhU+T/+1a9x/eXrKAULrTcrg8VaSqQfmFQFFLqOTCaxU0eofe3/JDNzHKlsOjHwiFQ3k0mO7q/+AfKyG4hReBb8FarAyhNn3vAkAMnILPzf/++PufeRl4i8DDrM4kuBtG42I30f5ftUGjGTlRrVqXHWdRW55tId3HD5NnZu6GGwS1HKSLKBIPRASUHiC8qxYbphmKxajo0lvLhvikdeeJ0333iDJIrp7uqks6OITmK0NhhjMEKhfR9jIjLT+xgQ4/yrf/FVPnzb9QTKtXzTGrsSOGvi6EmYOoL9+p8jTr7lFjylBOERB32M1gN6v/J7yCtvIpYB6Tr/imBliWMt1miEAC0VFesxFcH/8/89yoOPv0alrsnnikSxQaYDthQWITSN6hSzEwfZfclGrrliF1dduoOtm9bSVSpQyAoCz81IF4PB+XlXqjA6mTBdnmHfwSH2vPQKT/70Dd4aTigM7qJYkGg9S2JijFAIqZDGMDk+wbZej9//8kf4wp1XpJ3qenAxGXTqGU579nRodkLzd5M4Nl0PEbqGSCZh+ij8zV/A8b1OCVIK8NBhFyMV6PnVP0BdeSuJCvHSmfxKYGWVY8cFhLAIoRhvSL5176t8/8fPUIkF+UIJEotKPR2CIEu9VqdWnqWzEHL7dTv54sev4KO3XM6VF2+kpyMknxH4KjX+NtFO/bZ476yCnqJk3UCWizf0sXVdBz093dRFL0PTPtXaJJlQo5TBmhgsaL+Izg4yPHSUaOoEvR05Nm4YBMxpSXO2Z98OzSvmEYe0PgiEjkFXIZrF/PRpqIynyrECFFaF1BNL9qobEYObsUK5ZAbn9hhnjdO8s8sIIUH4VDS8uneUb37rQZIYstkMWmsSnWABTxqi6gQinmDzYMAnP3wV//w3v8hdt93AYH+fK2vBKNg65t0PxxxhXfyucjZ8FQp27NjIFz9/C7//65/gIzespzM0VCsRSeLjeXmwChtH5FTCQF8/r701xN/f8zD7j00hUG3EOd3Nzw+nlJaesKTRDxgwCUmjMffl1OBjLBgVYJXv7Fjt5awAVoA4oq1YQ2IlDRR7j5X5u+8+z9GRKl6mkzhdLvCDDEIoQi+iMXWAyzfCH/3yVfybr17NjkGwJknzzpwlhEkPPXdIjRBucTNrDDfvSPjff3Mnv/SxSwhUB5VKDk+UCEQG3xpkNIkfFqgF23n2gOKb33+CahSng9VC1p7S3eeMlBKtkprSp7kibwVYKUBqbFzBNGqtIYzU/yaxkprMolWIFE4xXknyrABx2qA1noCJGXj66QM8/ND9DAz0U6vVSOIYKSUW8D2P48eG+MDV1/LVX/9lbr3tBkxqMkc0lwKWCUIipEe+UOBXf+kWfuUrn6e7p5ux0RHCTOhcEYQgiiI6O4rEjRrf/e7d7Nmzh1q91pI67a7gFwyJhtlZ4jg6xWXVGoPvKaRqWrpXFitIHAUqQ4zk4Z8e57sPHCBTWkvoe3hKoTyfbCCR0SizJ37KR29cx7/+6o3ccuUgoQAhVTohk3PxTWcD66b8pxzWEVHgdKoA6AH+xUcK/NEv7GDb+m6ODI2SyeTwpZ9GIhhyxU5EfjN/efdL7D/pkisJnOIvbNMZgjY50Zw9LjcMVMcRR18jH83MKb0mwpiYugyY6lhDEpYAt7K/0IdoObGCxAEQnBiLefaFfby1/ygdXb1IKTHWAIJ6o0HUaLB503p++ct3snNbP0q4NZbzQ7MTT4/mNwoS7rptM5/8xLV09q1ncnoWASgpMVoTBAG5fIlnnn+F19/YR7VaRyDbQuEWlrrcSMtUEqI6DB1z4cotN490uBSCUncPnr/QA2llsALEcRVJgBh48vkDvL73CEpZlJQkSYIEAl8R16Yp+BW++KnrufLSzXiej9Hpivd5YRHdQ7Sdd+IEkebBGQgDPn7DFj5302biqeNuyUL5WAGxgVhkiUWJBx59nqNDY+lSxGJNd/pXvPlEix0LYVs/QNgEYTQirsLUCBw74OJymiLHWiyCSGVRg1sRYXHxQpcZi9X+POCawqbEGZqGR55+neMnx+jt7SKOY4wxhKGPTmJCL+GqXX185sMXI+MEa0y6cLmw3OVAShiRrh6mxGk6HVzU5fGlmwfYua5AtRYRG0BKYm1pmCwdAxfz+DN7efn1A9QSjcU5hp8LFhLmTOSx1iKMyzwoZsfh2D44edC9ks4tEdIZVU1l0Wt2uEiJ0xW6jFg24lhrU51EtPxq9h+qcejIMFFUJ5vNIaUkCALCwGd8ZIi1A3186lOfIpstkGiNNqklt229Zek4e/bZ9NvrNw3wuc99jnp1llq14vRyIfB9he9JqpUyr7z6GocOHXbK8VlGFJz5G2eAACYnnDtFrZ7m2WnC6XDK8+ju7MDzVsb/ZiGWQBw7t+bfPKxGYJxHXfouV4GH3xjiZBxgMnmqcYPEGBfSVBlmW2GSO6/o5vorNmCAIAwRUqYlilMO21RKzuZo/dGuqDb/36yySTNpmdYaWSFU3HbtJq7f2UNJVWnUZoi1xmCITINMqZuDQxWOj5ZRSGflhjTIqtkcc2kwbOoG2jyafjYLWm/+pekRW4iVwDZqMHsCDr4CBw5Crsf5DlntXEdNDiW6KW3ZierthDD1ZkzTpqwUlq9omy6sWDdRrTRg3/4DNOIIPwgwqQN1ojUnhobYtHEjV1yxi6zXtpwlROu44HDrhfR2K2666UaUUlQqVfzAb0mVbC7H6NgoQ0PDbs19haIIWiONADJZODqEfmsfSbUKYTjHQuGc1pXnUdy5k0w+7zr0LKTg+WJ5au5kupMM6TrRiWHDmwdO0IghCLNo43QfTyni+jQ7N3eza8tASx60FbbwxAqgJZrmzVklkFNw8+7trOkKkSQIJdMYJ0MmW+LkhGbfkRkmZuL0qlY3nxHNiM3mFQsPI0CL1CYT1/AaE4jxvbDnB8j9TyOlBpUD60FiaGiPk8X1HNtxLWrLJeB7aAG6rS9WCstDHFLypL8TA0MnZzkxPEliJMoPncqcLtr195S4aEs/g73FhaVcQDQJ2tbx6QrFjvUeOzb1kc+HRFEjHTw1fpil0lAcPTnNyZFxV8a5WLUXIcvCQ6d3kzpBNmaJn38I88aTiMYoMuOneQede2uUWOpda9E7PwBd/Zh0qNdpcu33BnFSYhgLUZwwPHKSOGqkC5zNbtJUKtNs2bKJ9Rs2gvBXtHJnjXYhZyHvw/ZtmygVO5ktVwGBtSClwvcDZmZmOHHiROv8ckFYi7IaaRoQTcO+l4mffRJTrkChAzw/Japb/zMqS7FvDWs2bcUq1WrLCyGzl5E4TjxGVjDb0BwdOkkYePhKYK1GKYESMbWZk6xf001XZzMZUXvLr0SV25Xi5rHwPk0PQwikC+LbuHaAbK7AdDnCorBWkGhJkOukFsHo6ET6siwfczwTEzZmCGYPYd+6H/7qj8lNvYXnyzTxcpTqLxnQHSTd22nsvJFo68Uk0u0NseAdwCxo4eXCMhIHlBJkpFvpnp6eJghCpFQYY5FK4ns+idb09/eTy+RSwfzugwVKpU7CMHBDlXDmBm00vu9iliqVSos4y8EdCy7zlhfQOHSU0bu/66bdvp/Gfi2gRGWWnosvpv+qK1wa27ZP02+sKJaHOE55AVy0QS0xzM6W8T2FJ50e4AmXi9E2ynQWc4SBD5hlfWPPD6mBMF1/6uookMuFGJMgrUUYizECq0IiK6nUGtgkSmeB6aveTFeyUKAtAgn41uIbjR9NE9ROIvc9BHf/O/zv/G901o5DpggmwEYSW9egI3Rg2Jv4vHzTLzJ19UfxCj0EFvx09t081NvI1+XA8hCHJnmcDKk1LNV6PXW3JPXuA5PEKAm5bKa1pvLuIQ6O+Nopu9mMJJvJ4CnPGZxx5gJjoRElVGo1Go3GHGPOhLav2OZVzYC/iQl49ini+76Lfvo+5Ng+giDNpWwEWIlQPtgENT1K18Aaem68g3D9dle0mb+geRZPc95YAnHaXq+2w9r2EFZL1GggcDFOUgpnw0kSpBQEvo/y3PL/hajkHJpPuBDuvE2D2JpnpFIo3+UTFtCqRxxHxFHkLhWkiyxt+oTVgEagkSI9jEZqjdR1VDKLmB2CoVfgxR/DY/fAY/+E3fuikyz5XrfKn0RgYoSEhvQZV91M9F3OwM13sXbLJrIBGO38tOfcPJp1TOu04MxyYQnE4VTSIDFWuGTjuPRk1lo86ayrWGdVFsI5ZqUxDIB1Sy5ncyx8hHOB681FmrDZ3cYNtW1T6yiGWCdpFa2rh7BITyCVQClJGLhcw1poNKaVkZ8kQlemSCqTRNVJ4vI4ZmIUhoYQB19H7X0C+cx34Af/Ab7xx/Cj/4Q4/ARBUMcrdIDNOWOY1CASSGrUYsuJnss48dE/xNz8aUwhT0KCkQYtXN5la5vuHgZhnRqwsNbLRZ4lEmc+mmN8s3OlkhSLbv0pjpN0yHKfSqmo1eskcTKvjHcDhHDxVwBRHBFFjVQCuWfXWiOFJJvNkc/l2+Ku2mgtBNZoyvveYuzVVzny8ksc2/NTpp57hvJD91O957s0/u4bmLu/C8++ALM1yJUgzEKcuLhwk04ajMVKD1up0Zkvctl113Dp1VciJS4+Ph3m3wlL+7IQh7aHF0DoSbo6O0m0IWm6OAIIDytDypUGcZKm7HwHKj0nadrev5Yi4xYJ6/WEqOFID85105qEJKrgy4R8LgAlsKKZnsW1gbQRYmIvxR/+KX1//W/Y/Ld/zMbv/Du67vtfKL7w78kP/YCw8RYyZ6BrALIbQXaCyjursMqBKIDshnAdb8jNPHTFl9j3mf8Zbv08BFksQapSGjczbbnJGqywbunsvWMAnINSks7OThf4Zt1UnPSNDoKA0dERqtXqSt1+6WjjcK1WJU4SVGpYE0KglKLeqCOEoFgqArLF+3ZfQEyMnBlH2QYeEZ6pIUUNIasIU0HYKCWuwKLmL5IKBUHoFjITy7obbuWyj3+Owd3XuGxRrdG0XT9cSYosjmXtOZGmIwuVor+n2wW8AVJIt+orAlSmi7cODjExOZM23DshcRZBalFwJn84NjRKZaZMPvSxGLSweJ7ARjWynqCro2Nu0mtBNqPWTez2bDCx6+hs4JIg+SVQvSCLQOCUIR25zWCldj1hrUsMGTdA10FXKZpZ+lSFArNubyyPdBqFY3qqBF7o4WrZiCPSDFYSyHiSgf4+hFJok+baahGnk30HjzE0NJzOPC5shReFTTvNOjtMDXhz32GmJyYp5jJY64gjJYikQSkb0tvd7ToufdndFEEjTAOq0448TT9Iq0H7YIog8iDDtOk1QsRzO+s1M4UlMSR1IMa88RKVR+9j4qkHGT/wBjPVGlZKEAq7qBfihcGy3bn5Aljrhqr+/h6KhTzWGJI4xqZeAL7nMT4xyf5DR5iYnFhYzDsERxqBRUgYOgn7D5ykXKkQhpk0yZJEa7fLTHdXid6+nlQ2NfW7dM4SRzA15WwwQrlptUnFmU2cTiLTiMFmrJQ1ziVFSggCZy0Wrj31zCQTzzzB4e//IwfuvYeh5x/Hjh1H1mddkF46k7rQ9rBlI45TgS3SGjIK1vV7bF3fQygNcb2evpnOIcvLdfPqgRle2Tf+Lll0EK6TpUdNw+N7ZjgybLDGRwmBRhILRaM2ydpSzK71OQa684BTRC04UugyVEbhxAmoGmgIqFuoxlCpQHUG6lMQjYKZAGbAzLhhqWl30NplFLUNEsp4aoINxSmusm9x7evfZNc//E+oP/s95APfxBs+gGcaeEK0XGAvFJaNOO2QQGcJtm7fSpjJUa+7aa1IU6gW83mOHj7IkcOHL3iFF4ezJVgk5Vl49tnniOOIfCHv7CKpf2+1VmPt2vVs376FfGZBNEFz2aVRg7Fh6O2GtQOwph8G+6C/BzrybgW1UXGbfkyOQnna7WelYzcNF7TyEgoh3MJmHLnznnKSqd7g5IMPse8793DspVeo4lbLAYw16VR9/uMtN5Y16UCzKCEEZeAnT03xH//LNzg8NMHgus0YY9HGIqkxfOIgt1xzEf/ytz7N7i3dCyyfNAe/FuY+dxALI9JSnF5HbL8+HVZIOxynM1Qalp88M8Wf/tfvMz1bdQF6npNEUvkcffXHfPUz1/LrX/44WzauQ9u6i9QSyq1nWYutVWD4OERV19ECF6VgLcJoqFWxlRns7BR6eopkcoJkYgwxPY2cHiGIpvB8A9kQK53jrHvOdOxCgsxQiwVxkEV195LZfjHq+o/C5qvAQGwMVrktHZtXtf88bROdA5Y96YAAbJrfprOU4eVX9nFytIyfKbTcR630qBrFbHmGQE9x4we2IkUaqdQi38JKLqQOiyjWjhCnJ89iSDtDCI6fqPP1v3+AfSdmEcpzjt823eJZS2R9hC984gauv+YSpJRomyCFC5URQjk7VZBFdPVD7zroXovtXgs96xA96xG9G2DNVlh7MazZDmu2wOBm6F+H6OlHdhZRvkHWZ6Ayg0gi54PjBamDerohrLD4CsKkSjB1HDM6xMmaYkh0k+/qww9EmpHLhQ00KdNslnNqntNgWYnTmhKmxCmGMDKdcODIFCfHpslkQwyQ6Jh8oUC9PMnM6HG2blxPX38/npS4FfNWMc2Sm3+0/u9ItfD8HM5ueppSUyiGZ+CHjxzh7h/8iEy+i8B32zVLIcDG1MoTXHXJGj7z8Q+yprcTYzVgUVIhkGmQnhumm4RPKdn621r3QwiL8BUyn8Xr7sJftxZ/wwa8rVsRa9ZDvgMhsyTSd5Gj1rrMp81ZlxDpPucK/AwxiuETw4wMD9EX+mQ7OpFhxjnhz2uGZrudP5aVOOB6W6QWDgWEmQKvHRjmxVcP0z/QixWgrSU2YPGp1uGtA+NcdulF9HT4qDRY7rTSIxXZ7t/b4/Tkccy0eAjhMoR9f88x/vQbz5HE0JXJ4AkAReALQlGmMX2QX/zUTVx7+WZyGT+N7JBI0STOfMIsPGzr0V2WVCsVVvpYFWJVFpvpQBcGiddcjL3s55C7b6FSWkOlEuPPlvGieuq/lK7IWwHSw6oABfTFJ9g0+iSZN35K4hewA5vwZIBuxZKn7dmiz/lh+YnTBq0N+e4MkzWfw0M1KpUZpJJ4QUBiDIEnyErNxPAxGuURLt+5nkK+2JrmttSveQSYq/rZVP9U8rjpq7EWo93K/RN7DvP1bz7BS28cYvOaQYTWLrZLKYxJ0HGVwf4ufvlLd7FpsISwGotN17XO9knOjHQBAXSCbyPCwS5yl2zH6++ARhlGTkJ1FsJ8unufk3FWCAQxiJi618XeE3VGy4aBDZvRWZcvUDTb0865uZwPVow4wmqEjfGkRyGfZ3Zqikcee5hi9xqEUhir3XaTKo8fdvPam0eYrvqs3zRAT9GljZWtxANpXJUr+byIY5FYIdHCoyIF/7inzte+8RSvvXaQ9T39zu6EixQIwyzVmVGqIy/zB792O9desY2M76UJuJtp+s/2SU4PkQ5p0jrDsGcFQoTglSDfTzJ4MXb7NcgNu7AiS+XYcVQ86+K6pJOaiABECSk1nY1DFEZeIR4+QW5gMzLIYpWX2rZxa1ypDrRUrBhxnA+vJkGRK/kEmYAjJxocH51BKg8vcDvN2UTgqwzWRBw5fIjZ6WEGerL09/ZgdNTqFEeAZkWXTpzmIFerW/7xoZf4+j3Psf/IGIUgJOv5GGPSDUIUk1Nl0A1uu34bX/3ih+goFpzEEk1p40o8uyc5PZolCNdsrnZSOomiFIkKId+BKuYQxRyiK4saPYSYmXbT8CDrdlzDR1DHYwpP1xmvBeyfhO51W5DFnAvNsRaBS533LiTOnI6iLQRC0tmdJ1fq5dmfvoa1Gs/3kUisNghjCcOA6ZlZTpycZGS8hiEgV+ymVAiQwuUunptWnQtx0muRCAQNBG+NwN33v8a3vv80R46Okg9DcpksjTjBSokWAk/U0ZUhLt5U5De/8il2bel3Sr/VbnmlRcizfZJT0X6laP1YyCR3ShqD9BWmqwdvw1ZEphNiAZUZiGbBk3P+RCLESjeLLQ/vJ29ist19qHyHMx8A1qZ2oiU+/QoQp025FSCFRZGQUx49a0qcGJ1l6OQwjdjiqQCFWySME0GY76WWZNh7aJKX3hzG83w6ShY/8PB9DyXSyp7BsavV5kK0CFNNEoZnZ3j+wBTfeugQf/m95xkdK7O2s5uM8qhFEUYpEiFIlIT6CJesgc9++FLu/NCVzp5iTavc5STOvKvbTwongaR1C8VWZdB+CZXth23XYotFmDmCGDuQLmXgIiDoQpqArB5mwBykevQIdb8Tr2stQaGAFhJj5uwdpzzDWWAFiNNEk0DukTRgPI+tF29jz4sHGZusIqWP73l40ukNQkDgS3JZn8rMOI888APGR4YRQlIoFAgzGRcRalMxu2iuO2e5MFZgDEQGKrWE1/cf53/86HH+5hvf54HHXqDQOUBXMY8nIDFuFd8KHDmsxjcVPnXnTXz+03e47YqYI03rTq3h89SnOBOaV5z1leltDKBM7FxKOwNEZ+B2Dz5+0sWSq2aSWg0iAmWJs4PsG5rFZEt0btqCUdJtAGstwqYbrJ31gzgsq+XYoUkY05odNWFQGCRHRgV/9l9+wP1Pvoxf6MDLljBJjJ/qms29oar1BvU4JqmXWTvQyTW7d3H9FTvZuXmQwW7oykLWn1s3sUA5gVoCU3U4Mgx79p7k8Rf2svf1vZTLZfK5HKViyV0grNv/QQisFyBsDONv4c0e5g9/+5f4+Y/eTGcxky5Epi/BPF2rHen507XmYpcsEc3Zl7IJUjdc6pNHvwWPftuF2AQFt9W08EGF2KSBqU0i1u5C3vYluPmTc4WI1G5yjs93wYjjxlWwCBrC58VDdf7++8/z3fuephwb1vR2k/UElnSqbAWJFSQol+NX1/BtjYKM6M5J1nRlWd+Tp6+rSD6XRUpBgmW6UuH4WIXDI1VOTGpmkiwNWXS2FmFRgCdACIv0JBZLgmCqFjMzPcGGzAz/+lc/wR03X8aa3jyCdhfX05GGd4g4BomG+iQceQIe/O/w6mvOhSPXCTIAkUnT3E4y7fcwfOlH8T7yy2wd6HdvXHNQaL59Z4kLRhxaxHFT3brx2Xd4hocf38sjj7/AiakqiVd0O7akrW/S6a4QhiSJiKMqJqqibIInBaGv8D3l9mcQqUIgLLWGplJLiI1AhQW8sIinPEfIxGUxVVLiBT5WSGQ0Q97Osm2gwEdvu5o7br6SzoKP8CxiXhbutyMO8z9buJb2dpedI5otLEj35rIxsjEGwwfgx9+B156CuAq5LhdrbhKwmpoNqBQGkZdeR/envkKc6cRagee2/DonXFDiNGGtxdoEKfNEEfzoJy/xV/c8xOGyj/UyqDQMxYp05xfr9nVASueGKiBJLLU4oRHFJImTCp6ATOAT+IrAk3jKLQXoRJMkSSv0RQqBFG7bIiMUQfk4H9wU8FufvY1LbroWkprL8Ol56Y7yTZyJOE00I/Pmn1pu2FTyWMDHOLGx93748V/Cmy9A2AUidN0g0rUurbGlbsqf/T3Mpbfg+T6hdW13LjhHAXWumP80TYM3wkPLHLORYXgmJt+3gUxHr5sqplNKrXW6KWl6rdEkcYOoXkU36igMOV9SygV0FbP0lHJ0l3LkMx6+tFidEDXq1Os14jhBSInvB/h+gJcmkbbWxVFFKGRxAK9/K+PTEQ0dYDM5t7i4Ej2+jHAtasFobFKDHbvghjswmy8n1mmSJSHSqboBT1Kv1xh+9EHM2AgebuZ7rlhBiTP/sEgMHtpCXViOjQuee2WcBx9/jRdeeR3f81K909kZXDq35rVN18o09Z0QICTGuERNxrgZj0pnC4BLCWety/WEdBuj4dpO4PyCDM5PXAiIooh8xuPjt1zBnTdcxs7NGToyIk00ncZVLcRppyIXRuK0o6n3uJ28LJXnH2H6219jbeN4GnpjnR+0raOTmOFgPZ0f/xWyV92M6B445+1CLhhxnHDzGJ0uc//jr3HPj1/gtX3DaJUl09E7164pcdxTzSeOVNKRo9npxm0ZbdO4Led/0hz33SqytcJN4dMsVhKBlC69vhUCI9x9jNHoRgVVGaLbr3H9ldv5xJ03cvXuXQR+gDqnnebeQeKYGCEsdvIY9qnvIe/+z1DohEzBOcdHs2gMw8EGDm64mos+8Yv0bb1kYXFnxBKI0/x683ezRdpbZi6CMEnnJRN1eOaFMt/4xx+y/+ARED7S8zEC/DBsfZ80m5Sxzt3BSoUgwZo6caNCXKuSNGpoHWN1M12/GwStFXhBiLUSi0QFGfxcJ15YQCnP6TXui1ij3XoZOKUaCxiMicAmeElCdxiye+dmPn7H1dz4gUEKvqvbXN1PhwtPnNYTWYsRAqGryMMvw7e/TvXom4Q5iVIWogbWQhzkqMxWKN71RbzbvgAda+cXeAYskTgLLxGnbZlyAs+8epT7H3+D518aZ//xaayO6CjlyGZDDJrExC3SID23CWtimZ6tUa470mQCTWchpKdUpJDxCX1JNlAEnkIpt6k8wqMWaaLYEMWGWmyZacD4dIPp6RmSWON5knw2oKOYAwwWjbXOZVN4HsIPaBhLNFPGq2k6fcv2tYLbr9vCz918Ods2D6SGj1TxTyXbfFx44jThXlbcAvPUcXj9WaJ7/hYvmUIGwjnR23RFdWaC8o4bEB//bfK7rltY1NviHInT/Gr7JXauVayz2lrhxOaJSXj82Te478EXeO7FfZTrmsENO8iEAVGjjjEa5bnkjFJa6vUajXoFQUIY+i5NSuBRzIf0dedZv7afTevX0t1ZIpfNkMu41LdKKbeltJDMVmo0GglRlG5wPzHLkeMjDA0NMT427j5PBBpFuZEgvBxBJkMQuPzKBogSTSgkHUGGpDrDxMk3WdeX49ord/CxO27gqsu2UMhI5yNsmltPt7887yxxDCB0jIxnXGavv/1zeOtJ51AfFtJkgxEQczIcxLvli/Te8TkIQrf57SJY+PjnQJzFJI3TG9xvA3hYqyhrw+HpGt/80Sjf+sd7mZwcZ82aNYShjzVJ6i5hESgkPiYGT8ZE1Vl0fYxips6OTZ1ce9UOLto8yJZN6+nv7iCTyzizeqsaC5+pSWKT/pbubx1RKc9ycug4bx46yZ79Ezy3d5g3jlWZtT0EmQKZQKTqu8t+L6XLeyOEwAifWj3i2L4XueWaS/jKpz/IHVdvpDMrwRNuSyCl5m9uv5A4Z4MlXHJ6pG1hE3j8v8MP/hymx6BzEyQBxGWwNSZsEbP9Bkq3fIpg93UYmVlYEKSP1v54y0OcZlyQ8oliyav7T/KX33qEnzx7iCBTpFAsodP4KqWkC6u1zt8maVhGh8ewSY3dl+3ipusu4wOXb2DbxiwDPS4ooJmyV4DTR9qySiyKU4aOORgE00ZweAz2vFHj0ReO8NxPX2Tk5HGyoU8hlyUIfIQ1GKPBglA+YSYD9QlmRw8ykEv4zK2X8+tf+AjZ/j5i3UB5zqHd4V1CnGYs14ln4Dt/Bm++Cl43+EVozAI1JulgvPcSwuvuZMNdn8TgUsItxDIQJx0j2/6vhY9GMAn801PjfO2v76M6MUVnroCwwiXGRrhZjVIEHkSNMtOjh8naaW6/4TJuu+kadu1YT39vN9lcBk+CFG0Ead1ziRCidb3FRVtEiaRejzh6cpZnXjnKTx57kSf27IPcAF0dnWR8hW25UYDFYKxBxzWUabBtfT9//Htf4JINIcrU3Tse+ClxlmAiW0bi2HSWpbEEjRHEs/cSPXYv5ug+MtlmkKAltiF1kUdceh2FL/8+NuvcRxa29DITJ+1YETBVN/zdvc/yN/fu4fCUolMJejIZrDY04hiEJJPJYa3k2NH9ZELJBy7bzF03buOGy/tZP9hDMdtucGveZ7mQFmbdsoSbSTlrqraC4XKdN45P8diLU9z3xBHe3LuXrAf9vd0oKTA2ASmxUmF0TNyoIpMql/fG/K+/+ym2XrwNhHtJPD/zjkscmyrJCZBpjCHG3iS+79uYZx4izKdWZGNBZinHinj9Lrp+4bcwm3enuZ3nYyFxztGtYq5TLWCEIhGS4Ybg6997iW/f+yzHhmfI5/LkfB+R7jGOkAg0Np6kPL6PnZtKfOL2y/n8x67ntht2sKG3hO85j8BlbLsFaJbcdEBxfkCk0qQY+qzrLbJjcx/bBovkVMzk+Bij4xMIT+KF2TT7hsGTgsDzwViOHT3CydFpevvXMjjYi4d1zmlqCSlczvHrZ4JNi1RWI3JF7PBJOPImylRT9wsX+GejGsIa/O51iM2XLrrf+nkQJ7001WcEoIXHWM3yzQcO8x+/+ShHJyMG+gZQWruVegFKeSTaEtUrZMQUW9Z4fPUXb+HLn7qW7Wu6yKjYpVDTsbuD00gX3nyZ0D77SQ8hXAYrE6OI6Qhh5/oSl+7ow0jByclZpisNqgkoqVDY1L1TIlVAWOji6dcOUa3UWN9TZE1fCWFd5hoXAXoOdTmHr54NmrWUQoFXws5MIU6+iZw6Cn7G+Slj8OIZVBIxmxsguOxGRLo/+2JlNXEOxElhbboBhWK6IXj0+WP82V98nUosKJU6kUajpEQJgZd2Sq08jS8irv/ALv7gd7/Ktbs3k1U+iY6IE40UAs/zESu0N8IZ0Xw1m87nQpDPZ9m1ezPrNu5kaGiKY8eHyGVC54nXlhRTCU1nKc+bLz/L7PBhLt62iY7+PnQUuSDDc8kosczEaUJYA1ojTRU5fQwOvu78lKWf7r+hqVuPEa+L/GU34mWypzzLGYjTpseccgAItJBY6TFpJPe9PMu/+fPvYbwSxWyeULq9cl0QvCXwPCaPv8y2nml+54vX8Ltf+ShrOw2+cDsNSCnxlGolZXR3eAcgnA2oNXcTAmkNeaPZ1Z/htiu2klOW5555hsj45ItdLiV+I0IbgREBuc4B9p8ss+fNE9x47bV05JWL+SZ1zRDN+yy8eRve7rPzgBGSRCrIF5DVKXjtJVAuoxhxHbTbqNZon9L6LYjOTpfTJ/Xtbs1o23AOr4ODSFXK118/xt//wz3E2iC9NC0HOKkhBEJ6vPHWAXZdchm/+qu/xp0fvoNsEDhDXYuO6b+z1c8vFGxqZjBuD4fBgZDPfOZ6vvobXwUZMHRimEw2i+/7CETLXcMPfI4PHec//6evMTl0DOE5s4OO40Wa/sLCSQwLpRJs2eyyYhiTZrsEhCSOY44PDRHH8RkjIFINcaFkWXguVYbTT587kvAP9x3hpReP0B9kCBNNgCSUiqzyCNCMHnyKz97cy6986nJuvGoT3fkQcEsLLQdsCyL1Hz6rYI2m/nOhDikBizQxW3pDvnzHTn7nM1ezuTPm+MFXCXNZRw4hiayHLAzSCAd44KfHuOfxA0xWLdIPkM1F1/YmXmE023Jem1og2wH9W9HCw0qT7s0ukVLgmQgzdhwilzV+PuZzJJU4i9Vo/hebP8dj+P6Dr/Ljx98gk+kirxShEEhj8YQkiTTl6TKXbBvklz/7QW67bhs9JQ9LA5Fmw3HsnzvO6m0UZ/Gd5YQQoJQjj9V4cZ31vfCFj13Bp++6lu7OEsdPDqOCECE9NB6xzGKCLuqyyN33Pclrew9johjhqeZy/wXFqS0mIMhhS70Y4ZIXNBM8CVwig2RmEpOkOZxPwRwnFhmqFlbQDScaqGnBY08f4/HH9zA7PUpfXw/GWpTyEAjiqEpcHaGvw/Abv/rPuOzyyyjlS6h0mcDFWJ9anXc1pMsQYS1gNGv7snz2k7fy+U/egYyniesz6RsgiKMGxmhypS72Hhrif9z/NPsPptEH75Zq+yGUOl3Xu6kfpD0TKEVSngW9MJXwQk6couM0GWUWHJaaFbw1Dv/t7kc4OTrD2jWD1Gq11IlK4HsZGjPDrCuM8Huf38HP37qVjtAgaCCtQVmJtBJpXZD+ewlWKUwQuGyius7WHsFXPrKVf/4L11Ad20cjiYiBxGhiJBO2gNp0I9988BUeeOxl4tnEddDC3PkXHArCEpQGMCJIs51KkD7SD8gKQef0JCpuYNJkuA7tI5J7A962B5teNQLnUffQg69wYmgEaw3KUy5HjNYIIZmamqZQ7ODmW36OD93+4TRiML3Z2zj/v1cgSFOL4BYOe/sK/PwnbuW662+kUW+QJAlhGDpF2VoCXyEwPPP0kzzz9FMLi3vn4CnIZlGyOdPD/fA8RDZLlCTpqHo6Eel68gzE8UgIKVuft45J7r73eeomR7HU5T5PFchAzCBnX+K2Kzv5ws/fSCkDHkmqBDtJk4Z9pSWL9NaLTfTevTBSYaTLe+xj2Nqb4V/+9l1sXJPHJjWs1UjltiFI6lU612znmSHFt548wcg0bv1qKUsRS0SzlVVrcUWADBG5El6xG5Gk/i/C7e0parNkGzOIqJIuVoBNU/vP6WhnI3GswENQKde5/8FnOXZiAull8H33ZlkEfpjh5IljXPuBS7njtutZv6bTuSXg3DTdbS5cY600rEiXEowmkIZt6wp8+M47yBWKTE5OEvi+q601eGGOxMvz2oHjPPjwU24K/A6h1QPCSU6R1gEdp/kHYyRuEiBnp5ynIJzWVPL2xBGWCrD3UIUfPfAkhUIWpSBpumyaiKQ+TSlj+fiHb+Ca3TvSoEDZMoW4ge5nByIdvK1wm55I4LO3beSDl27Ak5apchVjLEpKEm0odvQwOVPngQcfY2ps2tlN3oEmcSOSBBlgZJYZW6BiOqmrfqqqn2nRw6js4JjIUKvFkGgEzAt5bsfbEkciODIGDz4/wf5jE3R0FUEYojh2juFJjfL4Me64+XJuuHyQrhAUbndca9LNW9u2Izo/nH8JywktJFoKQgs7O+HzH9rBru0bOD46hbYCT0q0kYiwk7rJsO/gSV565S3iaOGMZeUhmof0QGWxQRfTm6+msvkW6ttvp3LR7UxvvZmJzVcxedFuomIvQnpueGslemgSyPWDsM79v+1k+xFw7wtDfO2vHufo0HH8XEfqtyVQ0mLiCo3qJP/Xv/1tbtndR0bFxNoQeKkz0IK+Xpy7Z4nTMP9CYDHiu7mm0+GUhXEDf/Gd1/gPf30/g91F8kGATjTGSmx5lK7kKHd+YB2//Tu/Qe9AR1N0zcdKV9EYiNOs7XED4prbPESlm65LBVEd8r3YsAOElz5Su+OcOzNP4tjmBNxKwGe0AU++UeaxN0epqwIuJkDjKUtcHcdrHOVzt29m9/aS23gei5eGnrhYbedO2Txc+rElHi1l+t1xOKdX6fI0Cyh6cMsla/jk9RdRHT2WOq9ZrI5RfkiNAvc9c4i9R8ZpRO0dcSpsmil9+Y5UbRASGwTYbBFb6sX2rMd2b8J2bMYWN2Hz67Fd27Fhl1OnW9e7MCNXdye/ZNvjtl6AZvqOQ4fG2bf/GImVbj3Kukop5WMR5LIZ7vzw7RQLWWITYY1zB21W/n2DtKobN3Rx1ZVuu0ObxnoJIfA8hR8ExHHMa6+/Tnlmdv71FxRtyynNzKXNQ6S/22lxGrRN5oXb/QRLnGZtemXfUY4cPkpnXuF7AoPFUwbTGKMjrPOBSzdw6fZ+AuU28xDSWZB/FtFspVOQehNKa1lTgmsu6uGyi7YwW65irMD3JEJ6mLCDKOznuZcPMDo6vbCUFcZCFYRUBC04nGRYZAw9FSm12pvFpf0YiWDv/iHGx8fpKASp/68l8AWV6RE6c5afu2k3HRmNQiOlhxBzm6b/LOG0pGlCWJSAHLBjMMdtH7ya2WqdxFg8FzKB9gqY3ACvvHGYw0eOk9TjMxT67sYCmTTX7YeORBw9NkkcN8hmQjfWIQGDSWr093ZyxRWXp9YaZ7FpUe9nfJh6u/4uFAKuvfoiirnARZoCIs0an82EjI6Ns+/AYSanZhZe+p7CPB3HmRETDPDy4SpDUwIlFVkisJZEBFRnx9g2kHD9JUX6Or2UTHN24fbjZw1innrYdtZKhHFW2JyCrf2aq7f2EegaURRjpU+MRyJCZLaXw6Oa0enGvLLfa1hAHNcgCjh08ADlchnf90jSLRKFlExPT9PfP8DOXbsI5SKB+D/j0uZtka7JhaHi6muvI04SyuWycx+17vNiscChg/s5fuzEwqvfU2gjjnSRmPhMRfD64XFmGxLfz5NEiau1kMRxnZ6uHGv7O9M3sG2Qer9wZhFdsymGBFDwJDddPEjWzlKrl9FSOiXaGDLFPt44WWPfiZrzTmqJroUFvruxQMcRGCMYHoNDR8doaNwOcVq3zOxBJmDNmj76e7twcZHtg9J7o9LnhTNVMc2OvrE/YNO6Xnzfp5Zu9CYAFWQpR5LjIzOMjrlI0daF7yGcShwNIyMVZmZnAI1QHsaCwqDiOn2dJdYMDlIolOZX9v0yRM1T3haKntTpzUCYg607tpIpFijX61iZ5kYWIJRkfHKKkeHRBdPf9t/vbunTRhw38FgtGRufRHoGPENkLVYoApvglcfZ1NNBT0cp/f67t2IrCsFcNGjrMCC0c0MQbgfonoFuRC5DxRpQLuupRhAJxWytQaVSdtfOe+maixnvbvKcYiI01jA+Po6F1Ars9g0XUlGrN+ju6aWzs3Phq7eKNkjnF0Vvbw+B5xNHEVJKRJodVSlFo1GnUqulrpvteG+0a+upm06iFSwnJ6cxwvkMGJxolSQkjWl6uwp0lErAz6axb8lIhYN0u4qTB/q7inh+QDXSxBZiY4lQmLDAZD1hfKZpQbYLJM27HwvpjraW8YkJrJ3bIcWtuVjiRp3OjhL5fO49U8ELjjRnsAU6OzrJZDIkSTODqls0VMqj3mhQKZddO+okjXHSqTuKO97NaBHHuq3VKceWqWodozys5xELQSLASonyJbl8Dt9fsAPuKubm4+lQIwzks4owk0F6PsILMF6A9nxkrkDDCsq1OrQyybuddtya+rsf84jTAKYiGCs3KCeWmUbCZC1iuh5TbjSoRXWUp9oycDbtN++Fql4ItBEHt/e8FIIkNsw2NJONhIlaTFlLJmoR05UaIDFCoKX7bYRLhfdub9EWcdycCoQ21MtTiKiCbZSx9RmIK+j6LLWZSXwlXEqS99B4fGGRGmwEhD7kRQzVaSpTw9SmRqhNjRCVx4kq08RRHVJVYN717wHMS6xkgPHJKn/zjW9Tabi0Hr4Q+BJ8qylPjXHXR2/nkst3kMkEWHCrVItKHGdp/tnFghdnXhM4n5dK1fL9Hz3Gi6+8QVch59KfCLeXRVSfZveuTXz20x8nSSJsMyeNwNniW3tnzkmxdxrtBG8Rp9kMiTZMzMyQpP7CKs3zHwiLqRvypRx+ToG06ar4KnFa/23BdbaxMFmpUms0CKREWtBpRArWkA88Ogo5jE2TeQvRKsjl4Jkr692ARYlD+shn94huF9z5sVKL4e0+e69jsZelzX3biY4zt4HVbjtpnKQB55bS1kVtX35ncVrinB2a9gaaWtGCz9/PSKVQs3laQ81imJNYzb8E726tuJ04SxhLTtcQ73fMEeHscBpSLXLq3YglSJz2BjpN5d+XWL52OecuuUA4T4mzilUsSeKsYqXxbu2SVYmzivPGKnFWsSSsEmcVS8IqcVaxJKwSZxVLwipxVrEk/P87gNUXgrY8WwAAAABJRU5ErkJggg==;" vertex="1" parent="1">
          <mxGeometry x="493" y="100" width="54.27" height="60" as="geometry" />
        </mxCell>
        <mxCell id="9BaGIX8ByUa0XlQMX_Im-21" style="edgeStyle=orthogonalEdgeStyle;rounded=0;orthogonalLoop=1;jettySize=auto;html=1;exitX=0.5;exitY=1;exitDx=0;exitDy=0;entryX=0.5;entryY=0;entryDx=0;entryDy=0;" edge="1" parent="1" target="9BaGIX8ByUa0XlQMX_Im-16">
          <mxGeometry relative="1" as="geometry">
            <mxPoint x="425.2750000000001" y="270" as="sourcePoint" />
          </mxGeometry>
        </mxCell>
        <mxCell id="9BaGIX8ByUa0XlQMX_Im-22" style="rounded=0;orthogonalLoop=1;jettySize=auto;html=1;exitX=0.5;exitY=1;exitDx=0;exitDy=0;entryX=0.5;entryY=0;entryDx=0;entryDy=0;" edge="1" parent="1" target="9BaGIX8ByUa0XlQMX_Im-17">
          <mxGeometry relative="1" as="geometry">
            <mxPoint x="425.2750000000001" y="270" as="sourcePoint" />
          </mxGeometry>
        </mxCell>
        <mxCell id="9BaGIX8ByUa0XlQMX_Im-23" style="rounded=0;orthogonalLoop=1;jettySize=auto;html=1;exitX=0.5;exitY=1;exitDx=0;exitDy=0;entryX=0.5;entryY=0;entryDx=0;entryDy=0;" edge="1" parent="1" target="9BaGIX8ByUa0XlQMX_Im-18">
          <mxGeometry relative="1" as="geometry">
            <mxPoint x="425.2750000000001" y="270" as="sourcePoint" />
          </mxGeometry>
        </mxCell>
        <mxCell id="9BaGIX8ByUa0XlQMX_Im-12" value="&amp;lt;&amp;lt;access&amp;gt;&amp;gt;" style="text;html=1;align=center;verticalAlign=middle;resizable=0;points=[];autosize=1;strokeColor=none;fillColor=none;" vertex="1" parent="1">
          <mxGeometry x="280" y="190" width="90" height="30" as="geometry" />
        </mxCell>
        <mxCell id="9BaGIX8ByUa0XlQMX_Im-13" value="&amp;lt;&amp;lt;access&amp;gt;&amp;gt;" style="text;html=1;align=center;verticalAlign=middle;resizable=0;points=[];autosize=1;strokeColor=none;fillColor=none;" vertex="1" parent="1">
          <mxGeometry x="475.13" y="190" width="90" height="30" as="geometry" />
        </mxCell>
        <mxCell id="9BaGIX8ByUa0XlQMX_Im-19" style="rounded=0;orthogonalLoop=1;jettySize=auto;html=1;exitX=0.5;exitY=0;exitDx=0;exitDy=0;entryX=0.5;entryY=1;entryDx=0;entryDy=0;endArrow=none;startFill=1;startArrow=classic;" edge="1" parent="1" source="9BaGIX8ByUa0XlQMX_Im-14">
          <mxGeometry relative="1" as="geometry">
            <mxPoint x="425.2750000000001" y="270" as="targetPoint" />
          </mxGeometry>
        </mxCell>
        <mxCell id="9BaGIX8ByUa0XlQMX_Im-32" style="edgeStyle=orthogonalEdgeStyle;rounded=0;orthogonalLoop=1;jettySize=auto;html=1;exitX=0.5;exitY=1;exitDx=0;exitDy=0;entryX=0.5;entryY=0;entryDx=0;entryDy=0;dashed=1;" edge="1" parent="1" source="9BaGIX8ByUa0XlQMX_Im-14" target="9BaGIX8ByUa0XlQMX_Im-27">
          <mxGeometry relative="1" as="geometry" />
        </mxCell>
        <mxCell id="9BaGIX8ByUa0XlQMX_Im-14" value="Kemajuan Studi" style="html=1;whiteSpace=wrap;" vertex="1" parent="1">
          <mxGeometry x="110" y="390" width="110" height="50" as="geometry" />
        </mxCell>
        <mxCell id="9BaGIX8ByUa0XlQMX_Im-20" style="rounded=0;orthogonalLoop=1;jettySize=auto;html=1;exitX=0.5;exitY=0;exitDx=0;exitDy=0;entryX=0.5;entryY=1;entryDx=0;entryDy=0;endArrow=none;startFill=1;startArrow=classic;" edge="1" parent="1" source="9BaGIX8ByUa0XlQMX_Im-15">
          <mxGeometry relative="1" as="geometry">
            <mxPoint x="425.2750000000001" y="270" as="targetPoint" />
          </mxGeometry>
        </mxCell>
        <mxCell id="9BaGIX8ByUa0XlQMX_Im-33" style="edgeStyle=orthogonalEdgeStyle;rounded=0;orthogonalLoop=1;jettySize=auto;html=1;exitX=0.5;exitY=1;exitDx=0;exitDy=0;entryX=0.5;entryY=0;entryDx=0;entryDy=0;dashed=1;" edge="1" parent="1" source="9BaGIX8ByUa0XlQMX_Im-15" target="9BaGIX8ByUa0XlQMX_Im-31">
          <mxGeometry relative="1" as="geometry" />
        </mxCell>
        <mxCell id="9BaGIX8ByUa0XlQMX_Im-15" value="Ekstrakurikuler" style="html=1;whiteSpace=wrap;" vertex="1" parent="1">
          <mxGeometry x="240" y="390" width="110" height="50" as="geometry" />
        </mxCell>
        <mxCell id="9BaGIX8ByUa0XlQMX_Im-34" style="edgeStyle=orthogonalEdgeStyle;rounded=0;orthogonalLoop=1;jettySize=auto;html=1;exitX=0.5;exitY=1;exitDx=0;exitDy=0;entryX=0.5;entryY=0;entryDx=0;entryDy=0;dashed=1;" edge="1" parent="1" source="9BaGIX8ByUa0XlQMX_Im-16" target="9BaGIX8ByUa0XlQMX_Im-30">
          <mxGeometry relative="1" as="geometry" />
        </mxCell>
        <mxCell id="9BaGIX8ByUa0XlQMX_Im-16" value="Presensi" style="html=1;whiteSpace=wrap;" vertex="1" parent="1">
          <mxGeometry x="370" y="390" width="110" height="50" as="geometry" />
        </mxCell>
        <mxCell id="9BaGIX8ByUa0XlQMX_Im-36" style="edgeStyle=orthogonalEdgeStyle;rounded=0;orthogonalLoop=1;jettySize=auto;html=1;exitX=0.5;exitY=1;exitDx=0;exitDy=0;entryX=0.5;entryY=0;entryDx=0;entryDy=0;dashed=1;" edge="1" parent="1" source="9BaGIX8ByUa0XlQMX_Im-17" target="9BaGIX8ByUa0XlQMX_Im-29">
          <mxGeometry relative="1" as="geometry" />
        </mxCell>
        <mxCell id="9BaGIX8ByUa0XlQMX_Im-17" value="Biaya Pendidikan" style="html=1;whiteSpace=wrap;" vertex="1" parent="1">
          <mxGeometry x="500" y="390" width="110" height="50" as="geometry" />
        </mxCell>
        <mxCell id="9BaGIX8ByUa0XlQMX_Im-37" style="edgeStyle=orthogonalEdgeStyle;rounded=0;orthogonalLoop=1;jettySize=auto;html=1;exitX=0.5;exitY=1;exitDx=0;exitDy=0;entryX=0.5;entryY=0;entryDx=0;entryDy=0;dashed=1;" edge="1" parent="1" source="9BaGIX8ByUa0XlQMX_Im-18" target="9BaGIX8ByUa0XlQMX_Im-28">
          <mxGeometry relative="1" as="geometry" />
        </mxCell>
        <mxCell id="9BaGIX8ByUa0XlQMX_Im-18" value="Kalender" style="html=1;whiteSpace=wrap;" vertex="1" parent="1">
          <mxGeometry x="630" y="390" width="110" height="50" as="geometry" />
        </mxCell>
        <mxCell id="9BaGIX8ByUa0XlQMX_Im-46" style="edgeStyle=orthogonalEdgeStyle;rounded=0;orthogonalLoop=1;jettySize=auto;html=1;exitX=0.5;exitY=1;exitDx=0;exitDy=0;entryX=0.5;entryY=0;entryDx=0;entryDy=0;" edge="1" parent="1" source="9BaGIX8ByUa0XlQMX_Im-27" target="9BaGIX8ByUa0XlQMX_Im-42">
          <mxGeometry relative="1" as="geometry" />
        </mxCell>
        <mxCell id="9BaGIX8ByUa0XlQMX_Im-27" value="Academic Repository" style="html=1;whiteSpace=wrap;" vertex="1" parent="1">
          <mxGeometry x="110" y="480" width="110" height="50" as="geometry" />
        </mxCell>
        <mxCell id="9BaGIX8ByUa0XlQMX_Im-51" style="edgeStyle=orthogonalEdgeStyle;rounded=0;orthogonalLoop=1;jettySize=auto;html=1;exitX=0.5;exitY=1;exitDx=0;exitDy=0;entryX=0.5;entryY=0;entryDx=0;entryDy=0;" edge="1" parent="1" source="9BaGIX8ByUa0XlQMX_Im-28" target="9BaGIX8ByUa0XlQMX_Im-42">
          <mxGeometry relative="1" as="geometry" />
        </mxCell>
        <mxCell id="9BaGIX8ByUa0XlQMX_Im-28" value="Academic Calender Repository" style="html=1;whiteSpace=wrap;" vertex="1" parent="1">
          <mxGeometry x="630" y="480" width="110" height="50" as="geometry" />
        </mxCell>
        <mxCell id="9BaGIX8ByUa0XlQMX_Im-50" style="edgeStyle=orthogonalEdgeStyle;rounded=0;orthogonalLoop=1;jettySize=auto;html=1;exitX=0.5;exitY=1;exitDx=0;exitDy=0;entryX=0.5;entryY=0;entryDx=0;entryDy=0;" edge="1" parent="1" source="9BaGIX8ByUa0XlQMX_Im-29" target="9BaGIX8ByUa0XlQMX_Im-42">
          <mxGeometry relative="1" as="geometry" />
        </mxCell>
        <mxCell id="9BaGIX8ByUa0XlQMX_Im-29" value="Finance Repository" style="html=1;whiteSpace=wrap;" vertex="1" parent="1">
          <mxGeometry x="500" y="480" width="110" height="50" as="geometry" />
        </mxCell>
        <mxCell id="9BaGIX8ByUa0XlQMX_Im-49" style="edgeStyle=orthogonalEdgeStyle;rounded=0;orthogonalLoop=1;jettySize=auto;html=1;exitX=0.5;exitY=1;exitDx=0;exitDy=0;entryX=0.5;entryY=0;entryDx=0;entryDy=0;" edge="1" parent="1" source="9BaGIX8ByUa0XlQMX_Im-30" target="9BaGIX8ByUa0XlQMX_Im-42">
          <mxGeometry relative="1" as="geometry" />
        </mxCell>
        <mxCell id="9BaGIX8ByUa0XlQMX_Im-30" value="Attendance Repository" style="html=1;whiteSpace=wrap;" vertex="1" parent="1">
          <mxGeometry x="370.27" y="480" width="110" height="50" as="geometry" />
        </mxCell>
        <mxCell id="9BaGIX8ByUa0XlQMX_Im-48" style="edgeStyle=orthogonalEdgeStyle;rounded=0;orthogonalLoop=1;jettySize=auto;html=1;exitX=0.5;exitY=1;exitDx=0;exitDy=0;entryX=0.5;entryY=0;entryDx=0;entryDy=0;" edge="1" parent="1" source="9BaGIX8ByUa0XlQMX_Im-31" target="9BaGIX8ByUa0XlQMX_Im-42">
          <mxGeometry relative="1" as="geometry" />
        </mxCell>
        <mxCell id="9BaGIX8ByUa0XlQMX_Im-31" value="Extracurricular Repository" style="html=1;whiteSpace=wrap;" vertex="1" parent="1">
          <mxGeometry x="240" y="480" width="110" height="50" as="geometry" />
        </mxCell>
        <mxCell id="9BaGIX8ByUa0XlQMX_Im-42" value="Policies for Access" style="html=1;whiteSpace=wrap;" vertex="1" parent="1">
          <mxGeometry x="370.28" y="610" width="110" height="50" as="geometry" />
        </mxCell>
        <mxCell id="9BaGIX8ByUa0XlQMX_Im-55" style="edgeStyle=orthogonalEdgeStyle;rounded=0;orthogonalLoop=1;jettySize=auto;html=1;exitX=0.5;exitY=1;exitDx=0;exitDy=0;entryX=0.5;entryY=0;entryDx=0;entryDy=0;dashed=1;" edge="1" parent="1" source="9BaGIX8ByUa0XlQMX_Im-52" target="9BaGIX8ByUa0XlQMX_Im-54">
          <mxGeometry relative="1" as="geometry" />
        </mxCell>
        <mxCell id="9BaGIX8ByUa0XlQMX_Im-52" value="Proses Daftar Akun Orang Tua&amp;nbsp;&lt;div&gt;Wali Mahasiswa&lt;/div&gt;" style="html=1;whiteSpace=wrap;align=center;" vertex="1" parent="1">
          <mxGeometry x="-50" y="390" width="110" height="50" as="geometry" />
        </mxCell>
        <mxCell id="9BaGIX8ByUa0XlQMX_Im-63" style="edgeStyle=orthogonalEdgeStyle;rounded=0;orthogonalLoop=1;jettySize=auto;html=1;exitX=0.5;exitY=1;exitDx=0;exitDy=0;entryX=0.5;entryY=0;entryDx=0;entryDy=0;" edge="1" parent="1" source="9BaGIX8ByUa0XlQMX_Im-54" target="9BaGIX8ByUa0XlQMX_Im-42">
          <mxGeometry relative="1" as="geometry" />
        </mxCell>
        <mxCell id="9BaGIX8ByUa0XlQMX_Im-54" value="Wali Repository" style="html=1;whiteSpace=wrap;" vertex="1" parent="1">
          <mxGeometry x="-50" y="480" width="110" height="50" as="geometry" />
        </mxCell>
        <mxCell id="9BaGIX8ByUa0XlQMX_Im-56" style="edgeStyle=orthogonalEdgeStyle;rounded=0;orthogonalLoop=1;jettySize=auto;html=1;exitX=0.5;exitY=1;exitDx=0;exitDy=0;entryX=0.587;entryY=-0.04;entryDx=0;entryDy=0;entryPerimeter=0;" edge="1" parent="1" source="9BaGIX8ByUa0XlQMX_Im-52" target="9BaGIX8ByUa0XlQMX_Im-54">
          <mxGeometry relative="1" as="geometry" />
        </mxCell>
        <mxCell id="9BaGIX8ByUa0XlQMX_Im-57" style="edgeStyle=orthogonalEdgeStyle;rounded=0;orthogonalLoop=1;jettySize=auto;html=1;exitX=0.5;exitY=1;exitDx=0;exitDy=0;entryX=0.593;entryY=-0.04;entryDx=0;entryDy=0;entryPerimeter=0;" edge="1" parent="1" source="9BaGIX8ByUa0XlQMX_Im-14" target="9BaGIX8ByUa0XlQMX_Im-27">
          <mxGeometry relative="1" as="geometry" />
        </mxCell>
        <mxCell id="9BaGIX8ByUa0XlQMX_Im-58" style="edgeStyle=orthogonalEdgeStyle;rounded=0;orthogonalLoop=1;jettySize=auto;html=1;exitX=0.5;exitY=1;exitDx=0;exitDy=0;entryX=0.611;entryY=-0.056;entryDx=0;entryDy=0;entryPerimeter=0;" edge="1" parent="1" source="9BaGIX8ByUa0XlQMX_Im-15" target="9BaGIX8ByUa0XlQMX_Im-31">
          <mxGeometry relative="1" as="geometry" />
        </mxCell>
        <mxCell id="9BaGIX8ByUa0XlQMX_Im-59" style="edgeStyle=orthogonalEdgeStyle;rounded=0;orthogonalLoop=1;jettySize=auto;html=1;exitX=0.5;exitY=1;exitDx=0;exitDy=0;entryX=0.605;entryY=-0.04;entryDx=0;entryDy=0;entryPerimeter=0;" edge="1" parent="1" source="9BaGIX8ByUa0XlQMX_Im-16" target="9BaGIX8ByUa0XlQMX_Im-30">
          <mxGeometry relative="1" as="geometry" />
        </mxCell>
        <mxCell id="9BaGIX8ByUa0XlQMX_Im-60" style="edgeStyle=orthogonalEdgeStyle;rounded=0;orthogonalLoop=1;jettySize=auto;html=1;exitX=0.5;exitY=1;exitDx=0;exitDy=0;entryX=0.611;entryY=-0.056;entryDx=0;entryDy=0;entryPerimeter=0;" edge="1" parent="1" source="9BaGIX8ByUa0XlQMX_Im-17" target="9BaGIX8ByUa0XlQMX_Im-29">
          <mxGeometry relative="1" as="geometry" />
        </mxCell>
        <mxCell id="9BaGIX8ByUa0XlQMX_Im-61" style="edgeStyle=orthogonalEdgeStyle;rounded=0;orthogonalLoop=1;jettySize=auto;html=1;exitX=0.5;exitY=1;exitDx=0;exitDy=0;entryX=0.593;entryY=-0.056;entryDx=0;entryDy=0;entryPerimeter=0;" edge="1" parent="1" source="9BaGIX8ByUa0XlQMX_Im-18" target="9BaGIX8ByUa0XlQMX_Im-28">
          <mxGeometry relative="1" as="geometry" />
        </mxCell>
        <mxCell id="9BaGIX8ByUa0XlQMX_Im-62" value="&amp;lt;&amp;lt;access&amp;gt;&amp;gt;" style="text;html=1;align=center;verticalAlign=middle;resizable=0;points=[];autosize=1;strokeColor=none;fillColor=none;" vertex="1" parent="1">
          <mxGeometry x="190" y="100" width="90" height="30" as="geometry" />
        </mxCell>
        <mxCell id="9BaGIX8ByUa0XlQMX_Im-64" value="My ITS Wali" style="whiteSpace=wrap;html=1;align=center;" vertex="1" parent="1">
          <mxGeometry x="375.28" y="230" width="100" height="40" as="geometry" />
        </mxCell>
        <mxCell id="9BaGIX8ByUa0XlQMX_Im-66" value="" style="shape=image;verticalLabelPosition=bottom;labelBackgroundColor=default;verticalAlign=top;aspect=fixed;imageAspect=0;image=data:image/png,iVBORw0KGgoAAAANSUhEUgAAAgAAAAIACAYAAAD0eNT6AAAABHNCSVQICAgIfAhkiAAAAAlwSFlzAAALUQAAC1EBgEUa+AAAABl0RVh0U29mdHdhcmUAd3d3Lmlua3NjYXBlLm9yZ5vuPBoAACAASURBVHic7d15uCVVeff9793MsxMiEBQBEUUTRUEUH0FwNjEO0eCAmtfEKcYp0USMUaMR4xQ1xiFGHuMMGkXNg4oKiGBAFOcIKIgoIIgIMgvN/f5R1Xhoejj7nH1X1d71/VzXuRroc+61etN7r1+tWrVWZCaSJGlcVvTdAUmS1D0DgCRJI2QAkCRphAwAkiSNkAFAkqQRMgBIkjRCBgBJkkbIACBJ0ggZACRJGiEDgCRJI2QAkCRphAwAkiSNkAFAkqQRMgBIkjRCBgBJkkZow747sD4RsSGwHbB9++tG/fZo7t0AXAxcAFyQmdf03B9JUoHIzL77QERsBTwMuBuwA81gv+rX2+JMRZ8upQ0DwGnAZ4GTMnNlr72SJC1LbwEgIrYDHgU8BjgQ2KSXjmgpLgGOBj4DfCEzf9NzfyRJE+o0AETErjQD/qOB++KV/Ty4DjgSeGVmntV3ZyRJi9NJAIiI/YHDaAZ9zafrgPcB/5iZF/TdGUnSupUGgIjYE3g98IdljWhorgbeDvxzZv66785IktasJABExI7Aq4GnAxtMvQHNgkuAJ2bmMX13RJJ0c1O9Bx8RW0fE64AfAc/AwX/MbgUcHRF/3XdHJEk3N7UZgPY+/5E0j+1JC30QeKZ7CkjScExlBiAingl8EQd/rdkhwAntrSFJ0gAsawag3aXvX4DnTa1HmmcXAAdm5ul9d0SSxm7JASAibkkz5f+gqfZI8+4XwAGZeUbfHZGkMVtSAIiIPWh2gbvT1HukMbgAeKAhQJL6M3EAiIj9gP8HbFPSI43FBTQzAWf23RFJGqOJAkBE3AE4Fdi2rEcak/NpZgIMAZLUsUU/BRARW9JM+zv4a1p2AI6LCG8lSVLHFhUAIiJonuX+/druaIQMAZLUg8XOALyG5gQ/qcKONCFgt747Ikljsd41ABFxMPDRbrqjkTuPZmHgj/vuiCTNu3UGgIi4N3ACsFlnPdLY/ZwmBJzVd0ckaZ6tNQBExArgO8DdOu2RZAiQpHLrWgPwNBz81Y/fo1kTsEvfHZGkebXGGYCI2Aw4k+aDuE8/pXlW/HyajWMuBK7vtUfzb2NgT2AvYFcgeuzLz2hmAs7usQ+SNJc2XMt/fwH9DP4rgROBo4BPZeZPe+iDWhGxNbAPcBhw7x66sBPNTMABmfmTHtqXpLl1sxmAiLg1cBbdbvV7FfA24F8y85cdtqtFiIgNgBcDr6afBaHn0swEGAIkaUrWtAbg7+lu8L8e+Hdgt8w81MF/mDJzZWa+kWYjqG/00IXb08wE7NxD25I0l24yAxARdwROp7kPXO1s4NGZ+b0O2tKURMQ2wDE0twa69lOamYBzemhbkubK6jMAf0c3g/8JwH0c/GdPZl4GPAT4eg/N34FmJuAOPbQtSXPlxhmA9rn/X1B/2M/hwLMz87ridlSonQn4IrB3D82fQzMT4CJRSVqihTMA+1E/+H8c+HMH/9m3YCbg1B6a35lmJuD2PbQtSXNhYQCoPuznW8DTc32HD2hmZOalNCGgj4WBdwSONwRI0tIsvAVwNs2HaoULgb0z82dF9dWjiLgFze2APvYKOJvmdoB/tyRpAisAIuL3qRv8AZ7lB/T8amcCHgx8s4fmd6GZCdiph7YlaWatugXwmMI2TsjMTxfW1wAMIAQcFxF9b10tSTNjVQCouv+fwN8U1dbAZOavaULAaT00vyvNTIAhQJIWYUVEbA/co6j+xzOzj1Xi6kkbAh5EfyHguIjYsYe2JWmmrKB5pKrK+wpra6AWzAR8q4fmd6OZCTAESNI6rAB2KKp9GXBcUW0NXGZeQjMT0FcIcCZAktZhBbB9Ue2j3fBn3BaEgG/30PydaEJAVcCVpJlWOQNwVFFdzZA2BByEIUCSBqUyAHy3qK5mzIKZgO/00PzuNCGgaqZLkmZS5S2A84vqagZl5q9oZgIMAZI0AFUzAFdm5m8K6mqGLQgBfcwO3ZkmBNyuh7YlaXCqZgAuKKipOWAIkKRhWAHcuqDurwpqak5k5sU0IeB7PTS/B4YASbrJccBSZ9oQcCD9hYBjI2K7HtqWpEEwAKg3Pc8E3IVmJsAQIGmUDADqVWb+kiYEfL+H5u9CMxNw2x7alqReGQDUuzYEHEg/IeCuGAIkjZABQIOwIAT8oIfm98QQIGlkDAAajAGEgC9HxLY9tC1JnTMAaFAy8yKaEPC/PTR/N5qZAEOApLlnANDgtCHggfQXAr4REQ/voW1J6owBQIO0YCbghz00f3vg6Ij4UETcpof2JalcAFlQ95TM3LegrkamfU7/OJpH9vpwMfBh4FvAacAPM/P6nvoiSVNjANDgDSAELHQNcC417xtJS5c029BfQHMa7apfb/znzPx1f90bHgOAZkK7d/9xNNv4StJSXAZ8DjgKODozL++5P70yAGhmGAIkTdFvgS8DnwI+k5kX9tyfzhkANFPaEHA8zdG+kjQNNwD/A/wX8O+ZeWXP/emETwFopmTmL2geETyj775ImhsrgP2AtwA/johnRcSGPfepnAFAMyczL6AJAWf23RdJc+d2wLuB70XEo/vuTCUDgGZSGwIOwBAgqcYewKci4sSIuF/fnalgANDMciZAUgf2A06KiE9GxO/13ZlpMgBopmXm+TQh4Ed990XSXHsMcGpE3LfvjkyLAUAzrw0BB2AIkFTrdsBxEfG0vjsyDQYAzYUFMwE/7rsvkubaJsD7I+LNEbFB351ZDgOA5kZmnkczE2AIkFTtxcB/R8Q2fXdkqQwAmisLQsB3e+6KpPn3MOCUiNi9744shQFAc6cNAfcDPt53XyTNvTsDx0bE9n13ZFIGAM2lzLwyM58AHEqzzackVdmRZs+ATfruyCQMAJprmXkY8Ec0p4BJUpX7AO/tuxOTMABo7mXm0cA+wFf67oukuXZIRPxN351YLAOARiEzz8zMA4BH4gJBSXX+OSIe3ncnFsMAoFFpZwPuCRwCnNNvbyTNoRXARyNij747sj4GAI1OZt6QmR+iWb37XJpbAyv77ZWkObINcFREbNx3R9bFAKDRyszfZua72lsD2wJPAY7ABYOSlm/VBcZgBZAFdU/JzH0L6krlImIjmhPA7gRs337dbsE/b03z3pE0LEN7b/4K2DUzB3lRYQCQJM2FNrxvB+xAE9b/AHg0zbqfvrw+M1/WY/trZQCQJM21iLg9TRB4Ot2HgauBO7U7lA6KawAkSXMtM8/NzLcD9wKeBPykw+Y3A/6xw/YWzQAgSRqFbHwU2AN4IXBVR00/PSLu1lFbi2YAkCSNSvsE0NuA+wM/76DJFcBhHbQzEQOAJGmUMvNbNNuEf72D5h45tBMDDQCSpNHKzAuA/YEvFTcVwKOK25iIAUCSNGqZeQ3weOCM4qYeU1x/IgYASdLoZealNEeHX1LYzAMjYuvC+hMxAEiSBGTmj4CDC5vYmOZE0kEwAEiS1MrMLwKfLGzi0YW1J2IAkCTppg4Fri+q/fCI2KSo9kQMAJIkLZCZZwDvKyq/FXBQUe2JGAAkSbq51xXWvldh7UUzAEiStJrMPBf4RlH5HYrqTsQAIEnSmh1VVHcQOwIaACRJWrOqAOAMgCRJQ5WZPwB+UVDaACBJ0sD9rKDmdhHR+/jbewckSRqw8wtqbghsW1B3IgYASZLW7oKiur0vBDQASJK0dgYASZJG6LdFdXvfDtgAIEnSCBkAJEkaIQOAJEkjZACQJGmEDACSJI2QAUCSpBEyAEiSNEIGAEmSRsgAIEnSCBkAJEkaIQOAJEkjZACQJGmEDACSJI2QAUCSpBEyAEiSNEIGAEmSRsgAIEnSCBkAJEkaIQOAJEkjZACQJGmEDACSJI2QAUCSpBEyAEiSNEIGAEmSRsgAIEnSCBkAJEkaIQOAJEkjZACQJGmEDACSJI2QAUCSpBEyAEiSNEIGAEmSRsgAIEnSCBkAJEkaIQOAJEkjZACQJGmEDACSJI2QAUCSpBEyAEiSNEIGAEmSRsgAIEnSCBkAJEkaIQOAJEkjZACQJGmEDACSJI2QAUCSpBEyAEiSNEIGAEmSRsgAIEnSCBkAJEkaIQOAJEkjZACQJGmEDACSJI2QAUCSpBEyAEiSNEIGAEmSRsgAIEnSCBkAJEkaIQOAJEkjZACQJGmEDACSJI2QAUCSpBEyAEiSNEIGAEmSRsgAIEnSCBkAJEkaIQOAJEkjZACQJGmEDACSJI2QAUCSpBEyAEiSNEIGAEmSRsgAIEnSCBkAJEkaoQ377oAkSQN2PXBtQd2VBTUnEkAW1D0lM/ctqCtJkqbAWwCSJI2QAUCSpBEyAEiSNEIGAEmSRsgAIEnSCBkAJEkaIQOAJEkjZACQJGmEDACSJI2QAUCSpBEyAEiSNEIGAEmSRsgAIEnSCBkAJEkaIQOAJEkjZACQJGmEDACSJI2QAUCSpBEyAEiSNEIGAEmSRmjDvjsgSZpMRGwMbNV+bQlsClwJXA5cAVyemSv766FmgQFAknoSEQHcAbhz+7U9zYC+FTcd4Ff/940XUftq2jCw4OuKNfzzucDpwBmZeeH0/nQaOgOAJBWLiK343SB/Z2CP9tc7AZsVNbtZ+7XtYn8gIi4FzljwdXr7648z89qKTqo/AWRB3VMyc9+CupI0WBGxEbAvsBc3Heh36LNfU7ASOIebBoOTge9lZsUYog4YACRpiSJiBc1gfyBwEHB/YPNeO9Wti4HjgGOBYzPzzJ77owkYACRpkdp79nvSDPgHAvsDt+i1U8NyHm0YoAkE5/bcH62DAUCS1iEiduN3A/4Dgdv226OZchY3DQQX9dwfLWAAkKTVRMRdgacCB9Os0td0fBv4EPCRzLyg786MnQFAkoCI2BZ4Is3Af6+euzPvVgJfBD4AHJWZV/fcn1EyAEgarYjYBPhDmkH/4cBG/fZolH4DfIImDJzgUwXdMQBIGp2IuC/NoP+nwC177o5+5xzgg8AHM/NHPfdl7hkAJI1CRNwBOIRm4L9Tz93R+v0PzazAEZn56747M48MAJLmWkTcHTgUeAIegDaLrgTeDbzZhYPT5ZtB0lyKiL0j4ijgOzSr+f28m01bAH8N/CQi/q2dydEU+IaQNFci4gER8QXg68Af08x0avZtAjwX+FFEHB4Ru/fdoVlnAJA0FyLioRFxAvAV4CF990dlNgL+DPhhRHy0vcWjJTAASJpZ0Xh0RJwKfB74P333SZ1ZQXNr5zsR8emI2LvvDs0aA4CkmRMRKyLiicB3gU8B9+65S+pPAI8Cvh4Rx0TEA/ru0KwwAEiaKe2V3teBjwB367k7GpYHA1+JiE9ExO/13ZmhMwBImgkRccuIeDfNOfRu1at1eRxwekS8JCI27LszQ2UAkDRo7X3+PwPOBJ6Fn1tanC2ANwDf9rbAmvlGkjRYEfH7wFeBw4Hb9NwdzaY9aW4L/GdEeJTzAu4EKGlwImIr4B+BvwI26Lk7Q5HAucCvgctX+7qG5op3q9W+tgMc9H7nUuDlwLsz84a+O9M3A4CkQYmIg4G3ANv33ZeBeUFmvn3SH4qIDwNPKujPLPsG8NzMPLXvjvTJWwCSBiEi9oiILwEfxcF/dacA71jizz4f+OUU+zIP7g2cHBHvjIjRngZpAJDUu4h4LvBt4KC++zJA1wF/vtQp68z8FfC86XZpLqwAngN8b6yLBA0AknoTEVtHxJHAv9Hs9a6be0Nmfn85BTLzSOCoKfVn3uwIHBsRL4+IUZ0bYQCQ1IuIuBdwGvD4vvuyBNfRzFhUOxN4zZRqPQe4bEq11uXsDtqYtg2A1wKfH9OTAgYASZ2LiOcBXwN27bsvEzqV5smE7YGrO2jvRZl57TQKZeYvgFdPo9Z6XAHcqW3rJx20N00Podk3YP++O9IFA4CkzkTENhHxCeBfgY377s8i/Rx4PXDXzNwnM98B3B+4b3G7x2Tm0VOu+Q7g9CnXXN3vA/fMzFfRBLwHAO8DflPc7rRsD3w5Il4REXM9RvoYoKRORMS9gSOBO/bdl0W4Cvgk8J/AsasvwIuIbwJ7Fba/EviDzPzBtAtHxENpTk6s9APg9xe+bhGxGfBo4GnAg5iN/R2+BDwlMy/suyMV5jrdSBqGiHg+cBLDHvwTOJ7mrPntMvOQzPzSGgb/P6J28Af494rBHyAzvwB8tqL2AnsCT1it3asz86OZ+TBgJ+ClwLIWN3bgQTS3BB7Yd0cqOAMgqUxE3IJmG9/H9N2Xdbie5mTBwzJzvdPjEXEqtccPXwbslpkXVzUQEbvRXKVX3oY5HdhzfY8vtoPryxn2I6A30OxM+Zp52kHQGQBJJSJiV5od14Y6+F8DvAu4U2Y+bZGD/yOpHfyhGWTKBn+AzPwx8NbKNoA9gCcuoi/HZeaDgH1pZiYqLkqXawXwKuCzEbF5z32ZGmcAJE1dRNwT+BzNXvRDcwXwbuAtmXnBJD8YEacA+5T0qvFjmqvm3xa2Adx43sKZwO0KmzmTZvHkysX+QHsA1KE0j4cO8SL1ZOCRmXlJ3x1ZriG+uJJmWDulezzDG/x/TfNo2h0y8yVLGPwfRu3gD/CSLgZ/gMy8HHhZcTO7M+E5BJn53cw8GLgL8H9p9lwYkn2BEyNip747slzOAEiamoh4HPBhhrWr34U0hwu9qx30liQi/ofmw7/KcZl5YGH9m2l3vjuZ+lmNPSaZBVgoIm5Ps2DwGcCm0+zYMv0MeGhm/rDvjiyVMwCSpiIink3zmN9QBv/raJ7f3yUz37DMwf8h1A7+NwAvLqy/RpmZNIcFVd533w04ZKk/nJnnZubzaGYTPjW1Xi3fTjQzATN7sWsAkLRsEfFKmgV1Q/lMOZ7mOfqXZeZVU6j3yinUWJf/m5ldbC18M5l5CvCh4mZeEREbLqdAZv4sMx8LPJLhbDd8K5pNgx7Rd0eWYihvVkkzKCJWRMQ7aVZID8GFwCGZ+cBpTc1GxIOA+02j1lpcA7yisP5i/AO199p3odkAaNna3RH3pNm7v5P1EuuxOfDpiFjyLEdfDACSliQiNgaOoDlkpm830JwoeOfMnPbVbPXV/3smXZA4bZl5Ds2Cu0p/HxEbTaNQZl6Tma8A7k6zW1/fNgT+MyL+uu+OTMIAIGli7SNknwP+pO++0Ow1sE9mPi8zp3raXUQcSLPvf5VrgH8urD+Jf6L2inpnml0WpyYzz8zMB9PsN9BriKJZVP+miHjDrBwrbACQNJF28D8W6HTF+hpcCjwXuE9mfrOojbm/+l8lM8+l2bWx0sunNQuwUGZ+jGbjobfRnKPQp5fQrIcZPAOApEVrp/2Pon43vPX5Cs2GOe+q2po1Ih5Ac5JdlSFd/a/yOmpnAW5P0axRZv4mM19IM2NzbkUbE3hWRLy25z6slwFA0qK0R6N+mH6v/G+gWfx1UGaeX9zWC4vr//tQrv5XycyfAf9R3MzzK4tn5snAPYDPVLazCC+PiL/quQ/r5EZAkhalXe3f54K/i2iOZv1idUPtLm8/oe7I2muAXTsIMROLiB2Bs6jdz2HvzPxGYX0AIuJFNLMsU7/tsEgJPKm9RTE4zgBIWq/2Of8+B//jgXt0Mfi3nkPtefXvHeLgD5CZ5wH/XtxMJ1fGmfkvNLcEzumivTUImqcDHtxT++vkDICkdWp3+OtrUdMNNKvTX73UrWQnFRGb0Gzzum1RE4O9+l8lInagmQWo2nr3WuD2mXlRUf2bGMCx1FcAD+xi1mMSzgBIWqt2b/9/66n5i2j2Wv+Hrgb/1p9SN/jDgK/+V2n7957CJjYBnllY/yYy89J2F8Hn08/mQVsCR0fE7j20vVbOAEhao/ZUv8/Rz97+x9PcO+18kVxEfB3Yu6j8tTRnEww6AABExO1ottzdrKiJ84CdM/P6ovprFBH3ojmzYpcu222dA+w3lP//zgBIupmIuCfN4359DP6HAw/qafDfm7rBH2bg6n+VzPwFtbd+dgQeW1h/jdo9I/amOQWxazsDn29vSfTOACDpJiJiV5or/617aP6wzHxGx1P+Cz2vsPa1NKcTzpI3ANM4TGltenlMLjMvAQ4Cju6h+bsDn42I3o82NgBIulF7ZfIFYLuOm74BeH5mHtpxuzeKiG1p7v9XObxdYT8zMvNC4AOFTdy/nW3qXHtK5B9T++dbm/tTfwLjehkAJC10OLBrx23+luZ+/7923O7q/pzaWx5vL6xd6R3F9XvbLKddf/B04E09NP+4iHhBD+3eyAAgCYCIeD7dPyZ1OfCIzDyi43ZvIiI2oHafgy9l5umF9ctk5g+A4wqbeGJE3Lqw/jpl4yXA31CzKH5d3tCuO+mFAUASEXFv4I0dN3shcEBmfrnjdtfkUcBOhfWrr6KrVc7ObAr8RWH9RcnMNwNPA7p8KmFj4IiI2KbDNm9kAJBGrv3wOZLmw6grZ9E8DnVah22uS+Xiv58C/11YvwufofaAnee2szC9yswP0oTByoWPq7sj9acwrpEBQNL7aD6EuvIdmsH/rA7bXKuIuCu1Bxy9q8enGqai7f87C5vYCXh0Yf1Fy8zP0TwhcGmHzT62j4ODDADSiEXE84DHddjkWTS7+13YYZvr85eFta+hCVjz4D9o/jxVBnNyXnui4B8BV3fY7JvaTYo6YwCQRqr9sHlzh01eyMAG/4jYGnhqYRNHZObFhfU7k5m/Aj5a2MT+EXGnwvoTycwTgYOBrmZvNgaO7HI9gAFAGqF24DuC7u77r1rtP4hp/wX+lGaf9iqzvvhvddWPalbuwzCxzPwMHZ5ZQLM98X901ZgBQBqn/6C75/1/CzxmQAv+FqoccE4Z2ulvy5WZ3wJOKmziCYW1lyQzDwe63KDqTyLiuV00ZACQRqb9cHl8R83dADx1II/63URE3BY4oLCJebv6X6Xyz3X3iLhLYf0lyczDgLd12ORbutgh0QAgjUhE7AG8pcMmX9j3Jj/r8Dig6tGzi2gerZxH/wVUHtQ0uFmA1ouoXQOx0CbAxyKi9DAuA4A0Lu+guxP+DhvA9r7rUjnQvDcz+zh3vlxmXge8u7CJQa0DWCUzk2ajoGM6anJ34G8rGwhqtj48JTP3LagraYki4mC6u4I5PDOf0VFbE2vPuj+PmouglTTn3P+8oPYgtK/fT6lbRHr3zPx+Ue1liYgtgWOpPTZ6lWuAPTPz7IrizgBIIxARW9Hd1P/xdLtyein+hLrPv6PmefAHyMxfAJ8obGKQswAAmXkF8Ic0AbLaphSuuTAASOPwj8D2HbRzEc3JfkPf+a5ygKncMW9I/rOw9lDXAQCQmRcBT6SbPQIeHhGPrShsAJDmXET8Pt3ssnYD8OTMrFwgtmwRsSOwX1H586g9OW9IjgWqNjnaPSLuUVR7KjLzq8A/dNTcWyNii2kXNQBIcywiguaKtIuDVv4pM7/UQTvL9Xia9U8VPtEuFpt7mXk9zRMBVQY9C9A6DPhCB+3sBLxy2kUNANJ8ezp1V7sLHQ+8uoN2pqFyYBnqI49VKv+8gw8Abdg7BDi/g+ZeFBF7TrOgAUCaUxFxS+ANHTQ1K/f9iYjbA1VPKJ0LnFxUe6i+AvyiqPauXR+OsxSZ+Uu6WQ+wIVNeX2IAkObXYcBtitu4AXjK0O/7L1A5/X/kWKb/V8nMGxjp0wALZeYJFEzRr8EDImJqh1cZAKQ5FBF7A3/RQVOvy8wvdtDOtFQOKGOb/l+l8s/d1ZbV0/A6utkk6I0RcYtpFDIASHMmIlYA76L+/f0V4FXFbUxNRNyRus1bzp63g38mcBJQte/BzhFxn6LaU9XO/jyF+vUAt6UJG8tmAJDmz58C1fdOL2VG7vsvULmobF73/V+vduD7eGETg18MuEq7HuCQDpp6ZkTsttwiBgBpjrSP/b28g6YOzcwuVj5Pk6v/63yssPbj27/XMyEzjwU+WNzMBsDLllvEACDNl8cAU31UaA2+AbynuI2paq+W9ioqf2Zmfruo9kzIzK8D5xSV3wnYp6h2lZfQzJJVOqR9qmXJDADSfKm++r8BeHa7+nuWPK6w9min/1dTOQtyYGHtqcvMC4G/L25mI+ClyylgAJDmREQ8grqr3FXelZnfLG6jQuUAMvbp/1UqX4cDCmtXeRdwWnEbz2hPZlwSA4A0P6qvOC6km/UFUxURG1G3G+L/DvXY2q5l5reAHxWV36/9/zgz2lmy59DMmlXZFHjxUn/YACDNgYg4ELhvcTN/k5mXFbdR4d7A1A9SaXn1f1NVr8cWNP8fZ0q7NuI/ipt5TkTcaik/aACQ5kP11f/xmfmh4jaqHFBY2/v/N+VtgJt7GXWnJgJsCbxgKT9oAJBmXETcD3hgYRPXAc8trF/tgKK6383M04tqz6T2dsgZReUPKKpbKjMvYZmL9Rbh+RGx9aQ/ZACQZt8riuu/OTN/WNxGieL7/58sqjvrji2qu19EbFhUu9r7ga8V1r8FSwjpBgBphrWnpT2ssIkLgdcU1q9Wef+/aqCbdccX1d2Cuq2cS7W7JT6/uJkXR8Tmk/yAAUCabdX3/t+SmVcVt1HpgKK6VwOnFNWedV8prH1AYe1S7eOzRxc2sS0THgAWQMXxladkZtWZ25KAiNgdOJ26420vo7mCvqKofhc+BuxfUPerzNAe9T34KrDsverX4HjgiQV1u7I38JnC+j8Ddl7sRl2zej9FEjyVusEfYBvqnuuedf8HuKDvTozQAfi6r8tONJtefWkx3+wtAGkGtYejPKXvfkganKct9hsNANJsegBwh747IWlwHhMRWy7mGw0A0mzq4sxxSbNnCxZ5+JUBQJoxEbEZ8Pi++yFpsJ66mG8yAEiz51HAxLt+SRqNAyJip/V9kwFAmj2LSveSRmsFi1gkbACQZkhEbAc8pO9+SBq89V4oGACk2fJE3L9D0vrtERH7rOsbDADSbHH6X9JirfPzwgAgzYiI2BO4Z9/9kDQzDm5PxFwjA4A0O7z6lzSJWwOPXNtvGgCk2fGnfXdA0sw51BwbagAAHsFJREFUeG2/YQCQZkBE7IZb/0qa3EHt2SE3YwCQZsOBfXdA0ky6DXD3Nf2GAUCaDQYASUu1xs8PA4A0cO303QP77oekmWUAkGbUnsBt++6EpJm1f0RssPp/NABIw+f0v6Tl2Bq41+r/0QAgDZ8BQNJy3exzxAAgDVhErAD277sfkmbezQKAh4pIw7YXcIui2icBFxfV7sMurOVxp2W6EvhSQd0x2Yy6UyxPBi4sqt2HOwN7FNS9f0RsnJm/XfUfDADSsFVN/18NHJSZ1xbV71xEvIWaAHBsZj66oO6oRMTlwJYFpT+cme8oqNuLiNgPOLGg9GbAvsAJq/6DtwCkYTuoqO7X5mnwb+1SVPeHRXXH5syiuncsqtuXr9PMOlW4yeeJAUAaqPYUr/sXlT+uqG6fqgLA6UV1x6bqddy5qG4vMvM64KtF5W8yo2gAkIZrX2DzotrHFtXtkwFg2M4oqjtvMwAAXy6qe5+IuPEzxQAgDddeRXWvAE4tqt2LiLgtsEVReW8BTEdVkJrHAFAV0DdiwToZA4A0XHcuqvvVzLy+qHZfqq7+L8zMS4tqj03VDMAtImKbotp9+Tbw66Lau6/6BwOANFwVjwKB0/+T8Op/es4Esqj2XM0CZOYNwPFF5W+8sDAASMNVNQMwjwsAqwYA7/9PSWZeDZxbVH7norp9qloHYACQhiwitgJ2KCh9FfCtgrp9cwHgbHAh4OKdVFTXACANXNXV/4/a6cV54y2A2VAVqHYqqtunM6i5ZbJbe8S4AUAaqKoAUHUF1rfbFdV1BmC6qv7+3aaobm/aWyY/Kyi9GXB7MABIQ2UAmEzFAHAlNR/AY/bjorrbFtXtW9X79c5gAJCGquoJgLkLAO2JibcqKH1+ZlatWh+rXxbVnbsZgJYBQBohZwAW75bUfJbN00mJQ1H1mhoAJrM7GACkwWkX6NypqPw8BoCqD/+qq9UxqwoA3gKYjDMA0kDdgWahzrSdn5mXF9TtW1UAcAZgytqFbVcVlN4iIjYtqNu3qkWoBgBpoJz+n4wzALPFdQCL93NqAtNOEbGZAUAaHgPAZJwBmC3eBlikdhHqmQWlA7iTAUAanu2L6hoAJuMMQA0XAk6m6n27vQFAGp4ti+oaACbjDEANA8Bkqt63WxkApOHZqqhu1UEsfXMGYLZUBYBbF9XtW9X7dmsDgDQ8VQFgHp8AgLrXyxmAGlWv6+ZFdftW9b51BkAaIAPAZDYpqvuborpjV7GqHWDjorp9MwBII1K1BsAAMJlri+qOXdXrWvX3oG8GAGlEKmYArsnM6wvqDoEBYLb8tqiuAWAyrgGQBqgiAMzr1T/UfPBnZlYNVGPnDMBknAGQRqQiAMzz/eyKD34H/zoGgMlUvXcNANIAVawBmOcZgIrFX07/16l6bV0EOBlvAUhDEhEbU/NBNs8BoOLKzwBQxzUAE8jMa4HrCko7AyANjI8ATs4AMFu8BTC5ivevAUAaGAPA5FwDMFsMAJOreP96C0AaGPcAmJwzALPFADA5ZwCkEdi0qO41RXWHYKOCmhX3XNWo2o9iw6K6Q1Dx/t3UACANy5VFdbcoqjsEFdP187qifAiqXtt5vm1T8f690gAgDUvZph9FdYegYkp5nqeT++bOjZMr2RvEACANyxVFdQ0AkzEA1DEATK5kd1ADgDQszgBMruKD31sAdapeWwPAZAwA0pBk5krg6oLS8xwAKu79OgNQp+q1ncs1ABGxOVAxVnsLQBqgitsA8xwAvAUwW7wFMJmti+o6AyANUMmmHwU1h8JbALPFWwCTKdsczAAgDU/Jph8FNYei5IO/PZdB0+cMwGQMANKIVASAjSJiXqe1PVxmtrgGYDJVAcA1ANIA+SjgZNxadrY4AzAZZwCkEfFRwMlUffBXncswdlWvqwFgMgYAaYCqAsA2RXX7VrV98m2K6o5d1etaNXPWt6r3rQFAGqCqD7Jdiur27eKiutsW1R27qte16u9B36ret64BkAaoagbgzkV1+1b1we8MQI2q13VeA0DV+9YZAGmAzi2qO68B4FdFdQ0ANape118W1e1b1fv2XAOANDynF9Wd1wDgDMBscQZgkSJiQ2puAVwPnG0AkIbnjKK68xoAnAGYLRWva1L396BPuwAbFdQ9OzOvNwBIA5OZFwKXFpS+ZUTM48I2ZwBmRERsRc1WwJdm5vUFdftWFdrPgJoThiQtn7MAi2cAmB1O/0/GACCNkAFg8bwFMDsMAJMxAEgjZABYpHbq97KC0rcrqDl2Va+pTwBMxgAgDZhPAkym4grwVhFx64K6Y7Z7UV1nACZzJhgApKFyBmAyVVeA8/p69aXq9Zy7GYCIuCVw24LSl7ULjQ0A0kD9GFhZUHfXiNi0oG7fflpUd4+iumNV9XpW/f/v012L6t54cWEAkAYoM68FzikovSFw34K6fftJUV1nAKar6vWs+v/fp/2L6hoApBlQdRvgwKK6faoaAJwBmJLCKW2oCct9q3qfnrnqHwwA0nBVBYAHFtXt09lFdZ0BmJ6q1zKZswAQEZsA+xWVdwZAmgFVTwLsExFbFNXuS9UMwK7tfuxavqrZlF9k5jVFtftyP6BqrY4BQJoBJxfV3Qi4f1HtvpxLzaLJDYFdC+qOUdUMwDlFdftUNf1/OfC/q/7FACAN1/eoe755rtYBZOZ1wM+LyrsOYDqqXsd5XABY9f48YeGZCQYAaaAyM4HjisrP4zoAnwQYNp8AWISI2BLYp6j8sQv/xQAgDdux6/+WJdkrIrYpqt0XFwIOVERsQN2tlHOK6vblATS3nirc5PMkaFZQTtspmblvQV1pVCJid+qeBrgKuK6odh82oWbh1ErgioK6Y7IC2Kqo9pXAPB0FvCnN3+Vp+xWwbTuzCNSlDElTkJlnRsR5wI4F5TcvqDmPNgDmbbZknszbEy1Vjl84+IO3AKRZUHUbQNJ43OxzxAAgDZ8BQNJyGQCkGWQAkLQc52fmzTYWMwBIA5eZ5wJn9d0PSTNrjY8TGwCk2eAsgKSlWuPnhwFAmg1f7rsDkmaWAUCaYVU7Akqab2dn5jlr+g0DgDQDMvMi4Nt990PSzDlmbb9hAJBmx4f77oCkmfOhtf3GCprjAaetastHacw+Qs2Rt5Lm01mZedLafnMFcH5BozsU1JRGLTPPx8WAkhbvg+v6zRXABQWN3iIiNiuoK43dOt/QkrTAegNAxQwAwPZFdaUx+ySeTCdp/U7MzHUekV01AwBwp6K60mhl5lXAf/XdD0mD94H1fUPlDMCjiupKY+dtAEnrcg1w5Pq+qTIA/HFERFFtacyOA37edyckDdanM/Oy9X1T5S2AHYG9i2pLo5WZN+CeAJLWbr3T/9AEgMoriScX1pbGbFFvcEmjcyHr2P1voRWZeRbw06KOPCsidi6qLY1WZv4vcFrf/ZA0OB/JzOsX840btr8eBbygoCObAK8FnlJQWxq7DwB7Fda/DPhFYf1qGwN3LKr9c+DKotrzYAdqdoRdCfy4oG6X7kjzd7PKomcHIzOJiAOoO20sgXtnplcr0hRFxLbAucCmRU1cB+yWmecW1S8XEedRszPp6zPzZQV150JEnE/NXjAfz8wnFNTtREQcDHy0sInTMvNei/3mVYcBfRX4VU1/COC97gwoTVdm/hJ4X2ETGwEvLazfha8U1d2/qO7Mi4jdqdsI7viiuuXap+IOLW7msEm+eQVAZq4EPlvSncZewPsL60tj9c80V+pVnhEROxXWr1YVAO4dEVsU1Z51BxTWPr6wdrXHAXcvrH86zU6hi7bwOOCjptuXm3lCRLyiuA1pVDLzZ8B/FjaxKfC2wvrVji+quxGwX1HtWXdAUd2L2sWvM6cNi28pbuZ17SPCi7YwABwDXDXd/tzMqyPiWcVtSGPzemqPCX5MRDyisH6ZzDyDuoWMDy6qO7MiYgVwUFH5qtmcLrwCqJxJ+wlLWFtwYwDIzKuBz0+zR2sQwLsj4u0RsUFxW9IotI/yVi4sAvjXiKhabFjthKK6j3e305vZH7htUe2ZDAARcRfgxcXNvH6xj/4ttGK1f3/TlDqzPn8FfD4ibtlRe9K8ex0w0fTfhHYBXl5Yv9LxRXXvANynqPas+tPC2scX1q70TppbRlXOY4lr7G4SADLzf5hwEcEyPAj434h4lrMB0vJk5g+pf+++tF3hPWsqrxwrB7yZEhEb0ix0q/BLYObu/0fEk6ldFAnwxsz87VJ+MDLzpv+heYP/gN9tEtSF04G/y8xPd9imNFci4h7At4qb+VJmzty974i4CNi2oPR5wE65+gfpCEXEQ4AvFJX/RGY+vqh2iYjYhmZsu11hM78Edm6PCZ/Y6rcAyMwzgfcut1cT2gM4KiLOiIjXR8S+3luTJpOZ3wb+u7iZB7WbmcyaqlmAHYH7F9WeNU7/39RrqB38Af5lqYM/rGEGACAitqPZbnHLZXRsuc6n2aDo/PbrAppDDiZe6CBN4GtLnU4bgoi4D3BycTMXAHtk5m+K25maiHgm8J6i8v+Wmc8rqj0TImIjms/nqnVdd24vTmdCRNwTOBWovL19KXCH5bwP1xgAACLiVcArl1pYmlHbZ+Ys739PRBxD/SNqb8vMFxa3MTURcRua4FJxa/NCYMd2Q7VRiohHUjf79N3M/IOi2lPXzl5/Ddi3uKnXZOY/LKfAzW4BLPAmmr/YkmbLazto43kRUf0BNzWZeTFwbFH57XBr4Mrp/yMKa1d4HvWD/xXAW5dbZK0BIDOvoOaEQEmFMvME4L+Km9kAOGLGHuWtHEhG+zRARGwC/HFhE0cW1p6qiNgLeGMHTb06My9ZbpF1zQCQmUfQPF8saba8kPrjam/PbJ3x8Snqzk14bPsY3Bg9HNi6qPZpmTkTx/9GxNY0IXOT4qa+zxSu/mE9AaD19zRvHEkzIjN/Dry6g6YeFREv6qCdZcvMX9NseV7hNtRtgTt0Tv833gvsVtxGAs9Zyq5/a7LeANA+33oI8J1pNCipM/9Cs6dHtX+OiH06aGcavA0wRe0x739U2MRMTP9HxLOBJ3TQ1Psz88RpFVvrUwA3+8aI29M81lC1z7M0BDP/FMBCEfEAutlD/Rzgnpl5aQdtLVk7TXshzSmH03YpsN0sP0Y6qYh4PHWD9Nczc/BbLUfEH9A8elt9VsYlNI9DXjytgou5BQBAZp4LPAa4dlqNS6rVLgj8QAdN7Qwc3kE7y9I+M1116NktgIcU1R6qUU//R8SWNAGoi4OyXjbNwR8mCAAAmfk14C+oPXRE0nS9hObqtNpjIuKvOmhnuT5WWHs0twHawa/qmOgEPl5Ue5reA3RxPsbJFOzQO1EAAMjMD9I88nH5tDsjafoy8yK6O8nvTRFxr47aWqr/Bpa8fep6PGqGj02e1KOAzYpq/09m/qyo9lRExJ8DT+qgqZU0C/+mft7ExAEAIDP/G7gf8JPpdkdSkXcD3+ignY2BIyPiVh20tSSZeSV1u9ZtDczUoTXL8IzC2oOe/m+3+n17R829oz3nY+qWFAAAMvP7wD7ACdPrjqQKmXkD8Fy6uX23C/D/ImLzDtpaqsoBZu7PBYiIuwIHFpW/AfhEUe1li4hdgKOpm/1Y6AJgWdv9rsuSAwDcuL3mg4D3Tac7kqpk5qnUHYizun2Bjw94c5yjqbuNuc8MPRa5VJUh58TMPL+w/pK1B+UdQ/0pf6u8qPLQrWUFAIDMvC4z/xx4Ec29CknD9XKaM+y78AjgfUM82jszrwE+U9jELCyGXJL2nPunFjYxyOn/9hHSzwO7dtTk0e1uvGWWHQBWycy3AvcBjptWTUnT1e6G9yS6C+tPBd7QUVuTqvxwfUJEzOueKX8GbFFUeyX151hMrD3v4NPAPTpq8nzg6dWNTC0AAGTmNzPzQJrk/71p1pY0He3eAF0e9f03EfHXHba3WF+g7vHIjYFnFtXuTTub85eFTXwlMwd1Cm1ErAA+AhzQUZMrgSdm5i+rG5pqAFglMz9Hk5T+DBj0oxzSSL2Oun3x1+SNEXFIh+2tV7tj31GFTTx7wGsgluph1O53P8Tp/3cBj+2wvVe2Ib1cSQCAZtVxZr6fZpOEv6WbjUgkLcKCMz4u6KjJAA6PiId31N5ifbSw9o50O3B0oXJtw2+BTxbWn1hEvIZuZ3K+CBzWVWOLPgtg2Q01C0f+kGY74YdRdw9JWo65OgtgfSJif+DLwAYdNXkVcFBmntxRe+vUTmmfSd1V7Vcz8wFFtTsVEbvRvFZVizo/kplPLqo9sYh4HvCvHTZ5AXCPduOuTpTNAKwuMy/LzA9n5p/QHJ35KJq9w8vvc0has8z8Ct0cG7zK5sDnIuL+Hba5Vu1MyL8VNvF/2sNi5sFfUjf4Q3cb66xXO/h32Z+VwJO6HPyhwxmAtXYgYgNgP5rthe8G7ABsD9y6z35ptG43tEVI1dpFTl+g2dOjK1cDB2dm5aN4i9LOTp5H3azk+9pHpWdWRGxB8xptU9TEqZk5iL0T2mn/v++42X/IzNd03Gb/AWBt2scutm+/VoWC7YCN+uyX5t5rM/OKvjvRtXaDk2/T3QYn0Fz1PDMzez9FMCLeBTy7qPzVwO9l5iVF9ctFxHOAdxY28dT2nJnetEH4XXT/9MaXgYe0u3V2arABQFK3IuKBwJfo8NZg69DM7Gzh05pExJ7A9wubeGlmvrGwfqmI+AFw16LyFwE7tU9l9KK94PwI3S/a/AXNff9eZh27fqNLGqjMPA74xx6afl1EvLXPHQMz8wfAsYVNPLe9wpw5EXEgdYM/wHt6HvxX7fDX9eB/A/DkPm85zuRfSEllXkOzT37XXgB8OCL6vMX3jsLaOwN/VFi/UuWjf9fTnFTZi/bW11fobpOfhQ7NzMrQuV7eApB0E+0pfl+mOdCna8cAj+tjHUa7IPls4PZFTZySmX28pkvW3hr5LnUXi0dk5sFFtdepPdXvGLrb23+ht2fmC3po9yacAZB0E5l5FfBI4Ic9NP8Q4Ng+9tHPzJXULnS7T0Q8orB+hVdSO050+Zz9jSLinsBJ9DP4fwx4YQ/t3owzAJLWKCJ2ovmQ3KmH5s+j2Q/9q102GhG3Bn4ObFrUxDcyc++i2lMVEXcHvkPds/+nZea9imqvVUT8Oc0z/pt13TbNTn+PzMzremj7ZpwBkLRGmfkz4KFAH4+v7QgcFxGHdrk4MDN/Re32wPeOiFlZC/Aqajf+6fTqPyK2jIgPA++ln8H/VOCxQxn8wRkASesREfvSrAnYvKcufAE4pIvT0eDG6eHTCpv4VmbuVVh/2SLiHjSvQVUAuJjm0b9riurfRLsb45E0Z9P04Uxgv8y8uKf218gZAEnr1O7b/3iaFdt9eCjw7YjoZE/9zPwWza2PKveMiEcX1p+GV1F79f/eDgf/ZwMn09/gfz7NRj+DGvzBACBpETLzaOD/A/qaMtyBZnHgyzu6JVA9Pf2qPvc9WJeI2Itma/YqK2l23CsVEVtHxBFtW1VrOtbnUuChmfnTntpfJwOApEVpt2p9SY9d2AB4LfD5iNi2uK1P0ly5VfkDhntUcPXhUJ9q15eUaUPMN4EnVLazHlcDf5SZlTtMLosBQNKiZeabgb63tH0IzS2BA6saaBdqvaeqfmtwswARsTfNse2VymZXovFXwNeoO+J5MVbSHHZ1Yo99WC8DgKRJ/S31g+P67AB8OSI+0O7mVuGdQOWGRHejWVsxJNVX/ydn5gkVhdvFm1+jecRvk4o2Fmkl8GdDOOlyfQwAkiaSjWcD/9R3X4BDgNMj4i+nvdd+u2ir+kz4Vw7ljID2aY+HFzfzD9MuGBHbRMTbaR6z63unxatpHvXr9WTDxfIxQElL1k63vo3aFeOLdRrwnMz8+rQKRsStgHOAraZVcw2elJmVew8sSkR8geb2SpWTMvP+0ywYEU8G3kS3x1ivzaU09/wHPe2/0CCSp6TZlJn/CjwJ6O00twX2Av4nIt7TDtzLlpmX0AScSq9szyHoTUTsR+3gD822wlMREXeJiOOADzGMwf984P/M0uAPzgBImoKIeDDNyvkt++5L62LgpcD7c5kfchFxS+AnwDbT6NhaPDsze1lX0S5EPBG4X2EzJ2Tm/sstEhFbAK8AXgz0eXLkQmfSPOc/yEf91sUZAEnLlplfBB4IdLJb3yLcBjgcODEilrXffGb+GnjrVHq1dq+NiFsUt7E2T6J28IdlXv23q/v/hOaAqr9lOIP/qTQ7/M3c4A/OAEiaoojYnWbr3p177srqjgb+KTO/tpQfjohtaNYCVA7Sb8vMTk+Ja6+oz6A5e6HKcZm5pEc22wWSTwAOBe4+1V4t3xdpFvx1fnT1tDgDIGlqMvNMYD/ge333ZTWPAE6KiGMj4qBJfzgzLwPeMv1u3cRfRsRdittY3aHUDv6whKv/iNgwIp5Oc8X/UYY3+H+M5lS/mR38wRkASQXa6ezPAlNd9T1FJ9PMCPz3Yn8gIramWQswlQWGa3FMZj60sP6NIuKONANs5TPzX87MBy32myNiE+DPaKb5d67q1DK9HXjhcteWDIEzAJKmLjMvBR4M/FfffVmLfYHPRsS3IuLxi3kWPzN/A7y5uF8PiYhHFbexypup3zBnUc/9R8TmEfEi4Gyavft3ruzUEt0A/F1mvmAeBn9wBkBSsYh4AfAGYOO++7IOpwOvBz6Wmdeu7ZsiYiuaWYBbF/blLGDPdfVjudrbIF+qqt9a72xG+7jms4AXAdXnOyzHL4AnZ+axfXdkmgwAksq1e8wfAdyx776sx6U058Z/IDPXeCRwRPwdcFhxP16Wma+vKBwRGwLfBvasqL/AfdujpFdvfyPgkcBT21+HHAwBvkwz+F/Yd0emzQAgqRPtSvrDGe4peKs7G/gg8MHMPGvVf2xXzv+E2ivWK4DdM/OCaReOiOdRf9zx5zLzEau1uw/NoH8wtTMo07KS5myEf8rMG/ruTAUDgKROtdsHv4nhX/ktdBLwAeDIzLw0Il5Cc1uj0gcy82nTLBgRtwZ+BNxymnXXYJ/MPDUi7gA8hebMhjsXtzlNF9Bs0Xx83x2pZACQ1Ll2c54jgV367suErqV5uuEImtXg2xe2lTTT6KdMq2BEvBN4zrTqrcXngI/TXO3vzzDOiZjEF4GnZOZFfXekmgFAUi/aWwL/AfxJ331ZouuBDYvbOA24T2Zev9xCEXFvmscfK88dWDWgzNqgD82U/yuBw+Z1yn91PgYoqReZeVlmPh74S5or61lTPfhDc8DR3yy3SLvw7nBqB39oBv5ZHPzPBw7MzLm9378mBgBJvcrMdwL3pTlURTf3yohY7v3zIW6lOxRHA/fIzBP67kjXvAUgaRDaXeD+FngZsGnP3Rmak2iOm534Azsi7gZ8k9ladNmFC4AXZeYRfXekL84ASBqEzLw2M/+R5vn0z/Xdn4HZj2Ym4DZtUFqvdne9HYAP4+C/0ErgbcAeYx78wRkASQMVEY+lOYZ3p777MkDXAZcv+LoG2ALYasGXF3g3dzLwnMz8dt8dGQIDgKTBajfdeSXNVrFdLLrTfLqE5tbSe+dlH/9pMABIGryI2BN4J/CAvvuimZLA+4GXZubFPfdlcAwAkmZGRDwVeCNw2777osH7Ps10/4l9d2SovEckaWZk5gdotpR9F81iLml1VwAvAe7p4L9uzgBImkkRsRvNfd1DgI167o76dynNIUdvzcxL+u7MLDAASJppEXF74KXAM3D/gDH6JfAvwL9l5m/67swsMQBImgsRcTvgxTSH3WzZc3dU7zya9SDvzcyr+u7MLDIASJorEXEr4AXA84Fb9NwdTd9PgNcD78/M3/bdmVlmAJA0lyJia+C5NLMC2/bcHS3f6cDrgI9O43REGQAkzbmI2Bz4C+CvcVfBWXQacBjwyTGd1NcFA4CkUYiIFcCBwNOAx9BsnathuhD4CPABt+2tYwCQNDoRsSXwOOCpwAG4J8oQXAN8GvgAcIzT/PUMAJJGLSJ2Ap5CEwb26Lk7Y3QizaB/ZGZe1ndnxsQAIEmtiNiHJggcDNy65+7Ms7OADwIfzMyz++7MWBkAJGk1EbER8EiaIHAQcJt+ezQXzgaOAT6UmSf13RkZACRpnSIigLvTLCA8ENgf2LrXTs2G84HjgGOBYzPznH67o9UZACRpAhGxAXAvfhcI7g9s1munhuFXwPH8bsA/vd/uaH0MAJK0DBGxMbAvza2CA4H7MI7DiS4HTqAd8IHvpAPKTDEASNIUtRsP3Z3m2OI92l/vDOwGbNJj15bqcuBMmp34zmi/Tgf+10f1ZpsBQJI60N462JmbB4M9gO366xkANwDn8rvB/caBPjPP77NjqmMAkKSeRcQ2NGFge5qTDLda8LWYf98UuJLmav2K9tfV/3ltv3cucGZmXlP/J9WQGAAkSRoht7+UJGmEDACSJI2QAUCSpBEyAEiSNEIGAEmSRsgAIEnSCBkAJEkaIQOAJEkjZACQJGmEDACSJI2QAUCSpBEyAEiSNEIGAEmSRsgAIEnSCBkAJEkaof8fl3I8il40gEgAAAAASUVORK5CYII=;" vertex="1" parent="1">
          <mxGeometry x="455.13" y="250" width="20" height="20" as="geometry" />
        </mxCell>
        <mxCell id="9BaGIX8ByUa0XlQMX_Im-67" value="" style="shape=image;verticalLabelPosition=bottom;labelBackgroundColor=default;verticalAlign=top;aspect=fixed;imageAspect=0;image=data:image/png,iVBORw0KGgoAAAANSUhEUgAAAMgAAADICAMAAACahl6sAAAAYFBMVEX///9MTEx4eHjDw8Ph4eGVlZVQUFDn5+f29vbr6+tTU1NsbGzV1dVcXFze3t6hoaFjY2OHh4fx8fFycnJnZ2e7u7urq6vY2NjIyMhXV1dqamqOjo60tLSEhISjo6Obm5uMk3ubAAAG/ElEQVR4nO2d6XbqOgyFCWNomZoChcPQ93/LSwqlceItS44n7vL+24WTL7VkWbblwSArKysrKysrKysrK+t/qtlitD8fVlXs9+inw6X41eY6i/021tptC0Wncew3stLivWhrOnm9Hjb/6GDUOp5jv5hM5Xqq5bhpu4j9cgLtlgij1uVVrP7rk8KoTeW7jP2ODAHjULVM3lTK6xuD46Z/aZvKiDQOVQmbyspkHKqm6zRNZX4SYdRa7mK/dFflnmkcqt6TMxVLkBRtvrLoWol6YamxJzwujjZ8jmHSQT17QNwcYr+qSSwv/LZPt1f9yRg0Fqd57HdUNIO9gw7j8dhxiBG11HOnIXowYSp4NJ8Ni+k1eJe7f3TsQUE0j39Qfv9MKjcjX2+s1d+IgT/wVzf5gP+Fjd4Y0C2rY/j7l/nl7tpCo1KgQw2U3agKOiElB3HcoxY73TBIVHzQDN54WPh7xxNKaWnDzc+Vr/d/aDzsPrQWHqjveTr8YiiqgeAu9PAsWmEb3S1xV0EfpvCayzsf4VNrYc8K/zAhG/Q0WVn8I59ayKcXhg9z04f7WIaVrhJ9Q/OHKdxHl+UVG4fdN+R9mMJxvC9JV71xwiX2tKUWDgeEEs5gGeGSZCJZuEqAld8yjFp0uES4XKRl//41ln28X33jFmmXizTpybEwekitKJNnm7mqYa/utfKSPmQ53o4uPTgqgbd66sgIXc1DoUZXexC5VXInE+WEOzA1mraece3kHPxFDwvf9WnJUYodlmzFVjia3GTphKX/EHncLc3gD+1ALuaWGyKMY8+f5BpkFayUokdg46jnxqYJJFdWjmsheAA2jtnFBEqnJVufywbkzG4eG0cjjYIjP0E0t7QBWTMbJ4xD/dhkspQpmziFGdzhPtMN/3EuRZdk0slm6ssCwXPbSvt7vGGL54ptBncGCJFt2INoCucbWYupfkCwcSy2+FfYw5lXiLyA4GngzDDMfUCzMkbF7kGWcGJO7J77FXbFesvyB0K4XF4oiBMUK3Kodw0CR4QVe0QYQldMWYprEPA9TR1DFXLF1LcIAyKdwILQJjYI5XKRtGmKuCCWSR5d4igmiOVurVrdfHtEEPnsu6n2rCsayNwia6RqqPSvaCCjvhyt9jJIBskgGSSDZJAMkkEySAYJDkJl46OBWC1ZESswkUBs9wnhLYxRQPC2YbPQCkwEEJzG5+mgTfKEB3Gwe1a30hEaxM1+Zs0KTFgQdzvMO6uBIUHcnoRtueKAIK7PJqvLN8FAfBRWmF3Ag/2B9HW5SH/59jAgHg8s/LriECB+j5A8XLF/ELzY6ko/rtg3iFOXWyG/d3PFnkEucMuJTXcbF+izlFclDnUNMsEnR7c2G7LH3NjANQhS7f8tQXiuIwzIfUS2BuE48yAgjxipB4h5eA0A8oxa+4AYAx7vII15RD8QQwjqG6S59N0XhByh/IKoux17g1Cu2PXydFPt7IcDEJvztjzhbdrdfJQTEOkJaJ6II5OaDKEjEMmZdKbwaSxdhQJnIFS6T7Zd/y58Ggt8GHcgVALW0cazAdFVXYIQOzPdbAWknIdTEGr65mJzJuXOHYNQZ4T6bpelB9iAIP02MKcE0mdLeWIgtpv8EwQhjl2Yz/ilBSI+CJMsiOxoEhdk7RNkATu9GvVhl1sp/Y0Csclqz7kgIyIq5hzfu9lTqz0sq7UrIjJvPxhHxeYDlfUIygaxOglOnOPoPhj3m3quimPm+2lwLsjRhmNwlYBQUTE+dFw9zudzQU5WIF8yEOoUHNBzsOGCWO59wH0LPFhWBamxF4EJsrXjGBykIJL6vUqpBCaI9eIPPJpPPJhXBalSi1fwQOwLilRobkE+mFEFqR2JsUA2PVaxxmAsoR9sWv/rbtThgBx77RxY6ElMD6aCKl0dEQbIEZaD5Gml3UZnfjCKWvRBsbm9be+dHNqCd5wvqB0FQcbI2J6TYpqazAjPODumot/FZm4PZ1yE6mRGmH5fjVqIIjtkey4LzrYzf9yQopHLo4pVUu25rguolrpmh91PV0zX48Pteag63SxkwAe5VyIwlW5C7XnaWNMoLiwAuU20jSVW9O35q5b7rDspAzFL1x6r4KO1HssWAUA8lDFV9bOe4x0E16d2qJupeAYJdcFKufYKcgh45Y3yJNcg0ZRBMognZZAM4kk4j8dWnxK4DqXd/iJQQjf2SIpGdpTUjT3kRJaU93stpOIXjWwqxfv3cLIHKtUbEeEuAaCE76iU3MCX+AW73PsLXuDKY9aNEi9xCbX5jo+0bxBsaE6W0w58eVg/4VsH/KarPAishHhPV7mX7taB9G6fZWnc2tu4STEe4Wm2fi4RTT+SvyWUVrU6nPejxeuZRlZWVlZWVlZWVlZWFlP/AVSTbQcFKJEMAAAAAElFTkSuQmCC;" vertex="1" parent="1">
          <mxGeometry x="200" y="510" width="20" height="20" as="geometry" />
        </mxCell>
        <mxCell id="9BaGIX8ByUa0XlQMX_Im-69" value="" style="shape=image;verticalLabelPosition=bottom;labelBackgroundColor=default;verticalAlign=top;aspect=fixed;imageAspect=0;image=data:image/png,iVBORw0KGgoAAAANSUhEUgAAAMgAAADICAMAAACahl6sAAAAYFBMVEX///9MTEx4eHjDw8Ph4eGVlZVQUFDn5+f29vbr6+tTU1NsbGzV1dVcXFze3t6hoaFjY2OHh4fx8fFycnJnZ2e7u7urq6vY2NjIyMhXV1dqamqOjo60tLSEhISjo6Obm5uMk3ubAAAG/ElEQVR4nO2d6XbqOgyFCWNomZoChcPQ93/LSwqlceItS44n7vL+24WTL7VkWbblwSArKysrKysrKysrK+t/qtlitD8fVlXs9+inw6X41eY6i/021tptC0Wncew3stLivWhrOnm9Hjb/6GDUOp5jv5hM5Xqq5bhpu4j9cgLtlgij1uVVrP7rk8KoTeW7jP2ODAHjULVM3lTK6xuD46Z/aZvKiDQOVQmbyspkHKqm6zRNZX4SYdRa7mK/dFflnmkcqt6TMxVLkBRtvrLoWol6YamxJzwujjZ8jmHSQT17QNwcYr+qSSwv/LZPt1f9yRg0Fqd57HdUNIO9gw7j8dhxiBG11HOnIXowYSp4NJ8Ni+k1eJe7f3TsQUE0j39Qfv9MKjcjX2+s1d+IgT/wVzf5gP+Fjd4Y0C2rY/j7l/nl7tpCo1KgQw2U3agKOiElB3HcoxY73TBIVHzQDN54WPh7xxNKaWnDzc+Vr/d/aDzsPrQWHqjveTr8YiiqgeAu9PAsWmEb3S1xV0EfpvCayzsf4VNrYc8K/zAhG/Q0WVn8I59ayKcXhg9z04f7WIaVrhJ9Q/OHKdxHl+UVG4fdN+R9mMJxvC9JV71xwiX2tKUWDgeEEs5gGeGSZCJZuEqAld8yjFp0uES4XKRl//41ln28X33jFmmXizTpybEwekitKJNnm7mqYa/utfKSPmQ53o4uPTgqgbd66sgIXc1DoUZXexC5VXInE+WEOzA1mraece3kHPxFDwvf9WnJUYodlmzFVjia3GTphKX/EHncLc3gD+1ALuaWGyKMY8+f5BpkFayUokdg46jnxqYJJFdWjmsheAA2jtnFBEqnJVufywbkzG4eG0cjjYIjP0E0t7QBWTMbJ4xD/dhkspQpmziFGdzhPtMN/3EuRZdk0slm6ssCwXPbSvt7vGGL54ptBncGCJFt2INoCucbWYupfkCwcSy2+FfYw5lXiLyA4GngzDDMfUCzMkbF7kGWcGJO7J77FXbFesvyB0K4XF4oiBMUK3Kodw0CR4QVe0QYQldMWYprEPA9TR1DFXLF1LcIAyKdwILQJjYI5XKRtGmKuCCWSR5d4igmiOVurVrdfHtEEPnsu6n2rCsayNwia6RqqPSvaCCjvhyt9jJIBskgGSSDZJAMkkEySAYJDkJl46OBWC1ZESswkUBs9wnhLYxRQPC2YbPQCkwEEJzG5+mgTfKEB3Gwe1a30hEaxM1+Zs0KTFgQdzvMO6uBIUHcnoRtueKAIK7PJqvLN8FAfBRWmF3Ag/2B9HW5SH/59jAgHg8s/LriECB+j5A8XLF/ELzY6ko/rtg3iFOXWyG/d3PFnkEucMuJTXcbF+izlFclDnUNMsEnR7c2G7LH3NjANQhS7f8tQXiuIwzIfUS2BuE48yAgjxipB4h5eA0A8oxa+4AYAx7vII15RD8QQwjqG6S59N0XhByh/IKoux17g1Cu2PXydFPt7IcDEJvztjzhbdrdfJQTEOkJaJ6II5OaDKEjEMmZdKbwaSxdhQJnIFS6T7Zd/y58Ggt8GHcgVALW0cazAdFVXYIQOzPdbAWknIdTEGr65mJzJuXOHYNQZ4T6bpelB9iAIP02MKcE0mdLeWIgtpv8EwQhjl2Yz/ilBSI+CJMsiOxoEhdk7RNkATu9GvVhl1sp/Y0Csclqz7kgIyIq5hzfu9lTqz0sq7UrIjJvPxhHxeYDlfUIygaxOglOnOPoPhj3m3quimPm+2lwLsjRhmNwlYBQUTE+dFw9zudzQU5WIF8yEOoUHNBzsOGCWO59wH0LPFhWBamxF4EJsrXjGBykIJL6vUqpBCaI9eIPPJpPPJhXBalSi1fwQOwLilRobkE+mFEFqR2JsUA2PVaxxmAsoR9sWv/rbtThgBx77RxY6ElMD6aCKl0dEQbIEZaD5Gml3UZnfjCKWvRBsbm9be+dHNqCd5wvqB0FQcbI2J6TYpqazAjPODumot/FZm4PZ1yE6mRGmH5fjVqIIjtkey4LzrYzf9yQopHLo4pVUu25rguolrpmh91PV0zX48Pteag63SxkwAe5VyIwlW5C7XnaWNMoLiwAuU20jSVW9O35q5b7rDspAzFL1x6r4KO1HssWAUA8lDFV9bOe4x0E16d2qJupeAYJdcFKufYKcgh45Y3yJNcg0ZRBMognZZAM4kk4j8dWnxK4DqXd/iJQQjf2SIpGdpTUjT3kRJaU93stpOIXjWwqxfv3cLIHKtUbEeEuAaCE76iU3MCX+AW73PsLXuDKY9aNEi9xCbX5jo+0bxBsaE6W0w58eVg/4VsH/KarPAishHhPV7mX7taB9G6fZWnc2tu4STEe4Wm2fi4RTT+SvyWUVrU6nPejxeuZRlZWVlZWVlZWVlZWFlP/AVSTbQcFKJEMAAAAAElFTkSuQmCC;" vertex="1" parent="1">
          <mxGeometry x="40" y="510" width="20" height="20" as="geometry" />
        </mxCell>
        <mxCell id="9BaGIX8ByUa0XlQMX_Im-70" value="" style="shape=image;verticalLabelPosition=bottom;labelBackgroundColor=default;verticalAlign=top;aspect=fixed;imageAspect=0;image=data:image/png,iVBORw0KGgoAAAANSUhEUgAAAMgAAADICAMAAACahl6sAAAAYFBMVEX///9MTEx4eHjDw8Ph4eGVlZVQUFDn5+f29vbr6+tTU1NsbGzV1dVcXFze3t6hoaFjY2OHh4fx8fFycnJnZ2e7u7urq6vY2NjIyMhXV1dqamqOjo60tLSEhISjo6Obm5uMk3ubAAAG/ElEQVR4nO2d6XbqOgyFCWNomZoChcPQ93/LSwqlceItS44n7vL+24WTL7VkWbblwSArKysrKysrKysrK+t/qtlitD8fVlXs9+inw6X41eY6i/021tptC0Wncew3stLivWhrOnm9Hjb/6GDUOp5jv5hM5Xqq5bhpu4j9cgLtlgij1uVVrP7rk8KoTeW7jP2ODAHjULVM3lTK6xuD46Z/aZvKiDQOVQmbyspkHKqm6zRNZX4SYdRa7mK/dFflnmkcqt6TMxVLkBRtvrLoWol6YamxJzwujjZ8jmHSQT17QNwcYr+qSSwv/LZPt1f9yRg0Fqd57HdUNIO9gw7j8dhxiBG11HOnIXowYSp4NJ8Ni+k1eJe7f3TsQUE0j39Qfv9MKjcjX2+s1d+IgT/wVzf5gP+Fjd4Y0C2rY/j7l/nl7tpCo1KgQw2U3agKOiElB3HcoxY73TBIVHzQDN54WPh7xxNKaWnDzc+Vr/d/aDzsPrQWHqjveTr8YiiqgeAu9PAsWmEb3S1xV0EfpvCayzsf4VNrYc8K/zAhG/Q0WVn8I59ayKcXhg9z04f7WIaVrhJ9Q/OHKdxHl+UVG4fdN+R9mMJxvC9JV71xwiX2tKUWDgeEEs5gGeGSZCJZuEqAld8yjFp0uES4XKRl//41ln28X33jFmmXizTpybEwekitKJNnm7mqYa/utfKSPmQ53o4uPTgqgbd66sgIXc1DoUZXexC5VXInE+WEOzA1mraece3kHPxFDwvf9WnJUYodlmzFVjia3GTphKX/EHncLc3gD+1ALuaWGyKMY8+f5BpkFayUokdg46jnxqYJJFdWjmsheAA2jtnFBEqnJVufywbkzG4eG0cjjYIjP0E0t7QBWTMbJ4xD/dhkspQpmziFGdzhPtMN/3EuRZdk0slm6ssCwXPbSvt7vGGL54ptBncGCJFt2INoCucbWYupfkCwcSy2+FfYw5lXiLyA4GngzDDMfUCzMkbF7kGWcGJO7J77FXbFesvyB0K4XF4oiBMUK3Kodw0CR4QVe0QYQldMWYprEPA9TR1DFXLF1LcIAyKdwILQJjYI5XKRtGmKuCCWSR5d4igmiOVurVrdfHtEEPnsu6n2rCsayNwia6RqqPSvaCCjvhyt9jJIBskgGSSDZJAMkkEySAYJDkJl46OBWC1ZESswkUBs9wnhLYxRQPC2YbPQCkwEEJzG5+mgTfKEB3Gwe1a30hEaxM1+Zs0KTFgQdzvMO6uBIUHcnoRtueKAIK7PJqvLN8FAfBRWmF3Ag/2B9HW5SH/59jAgHg8s/LriECB+j5A8XLF/ELzY6ko/rtg3iFOXWyG/d3PFnkEucMuJTXcbF+izlFclDnUNMsEnR7c2G7LH3NjANQhS7f8tQXiuIwzIfUS2BuE48yAgjxipB4h5eA0A8oxa+4AYAx7vII15RD8QQwjqG6S59N0XhByh/IKoux17g1Cu2PXydFPt7IcDEJvztjzhbdrdfJQTEOkJaJ6II5OaDKEjEMmZdKbwaSxdhQJnIFS6T7Zd/y58Ggt8GHcgVALW0cazAdFVXYIQOzPdbAWknIdTEGr65mJzJuXOHYNQZ4T6bpelB9iAIP02MKcE0mdLeWIgtpv8EwQhjl2Yz/ilBSI+CJMsiOxoEhdk7RNkATu9GvVhl1sp/Y0Csclqz7kgIyIq5hzfu9lTqz0sq7UrIjJvPxhHxeYDlfUIygaxOglOnOPoPhj3m3quimPm+2lwLsjRhmNwlYBQUTE+dFw9zudzQU5WIF8yEOoUHNBzsOGCWO59wH0LPFhWBamxF4EJsrXjGBykIJL6vUqpBCaI9eIPPJpPPJhXBalSi1fwQOwLilRobkE+mFEFqR2JsUA2PVaxxmAsoR9sWv/rbtThgBx77RxY6ElMD6aCKl0dEQbIEZaD5Gml3UZnfjCKWvRBsbm9be+dHNqCd5wvqB0FQcbI2J6TYpqazAjPODumot/FZm4PZ1yE6mRGmH5fjVqIIjtkey4LzrYzf9yQopHLo4pVUu25rguolrpmh91PV0zX48Pteag63SxkwAe5VyIwlW5C7XnaWNMoLiwAuU20jSVW9O35q5b7rDspAzFL1x6r4KO1HssWAUA8lDFV9bOe4x0E16d2qJupeAYJdcFKufYKcgh45Y3yJNcg0ZRBMognZZAM4kk4j8dWnxK4DqXd/iJQQjf2SIpGdpTUjT3kRJaU93stpOIXjWwqxfv3cLIHKtUbEeEuAaCE76iU3MCX+AW73PsLXuDKY9aNEi9xCbX5jo+0bxBsaE6W0w58eVg/4VsH/KarPAishHhPV7mX7taB9G6fZWnc2tu4STEe4Wm2fi4RTT+SvyWUVrU6nPejxeuZRlZWVlZWVlZWVlZWFlP/AVSTbQcFKJEMAAAAAElFTkSuQmCC;" vertex="1" parent="1">
          <mxGeometry x="330" y="510" width="20" height="20" as="geometry" />
        </mxCell>
        <mxCell id="9BaGIX8ByUa0XlQMX_Im-71" value="" style="shape=image;verticalLabelPosition=bottom;labelBackgroundColor=default;verticalAlign=top;aspect=fixed;imageAspect=0;image=data:image/png,iVBORw0KGgoAAAANSUhEUgAAAMgAAADICAMAAACahl6sAAAAYFBMVEX///9MTEx4eHjDw8Ph4eGVlZVQUFDn5+f29vbr6+tTU1NsbGzV1dVcXFze3t6hoaFjY2OHh4fx8fFycnJnZ2e7u7urq6vY2NjIyMhXV1dqamqOjo60tLSEhISjo6Obm5uMk3ubAAAG/ElEQVR4nO2d6XbqOgyFCWNomZoChcPQ93/LSwqlceItS44n7vL+24WTL7VkWbblwSArKysrKysrKysrK+t/qtlitD8fVlXs9+inw6X41eY6i/021tptC0Wncew3stLivWhrOnm9Hjb/6GDUOp5jv5hM5Xqq5bhpu4j9cgLtlgij1uVVrP7rk8KoTeW7jP2ODAHjULVM3lTK6xuD46Z/aZvKiDQOVQmbyspkHKqm6zRNZX4SYdRa7mK/dFflnmkcqt6TMxVLkBRtvrLoWol6YamxJzwujjZ8jmHSQT17QNwcYr+qSSwv/LZPt1f9yRg0Fqd57HdUNIO9gw7j8dhxiBG11HOnIXowYSp4NJ8Ni+k1eJe7f3TsQUE0j39Qfv9MKjcjX2+s1d+IgT/wVzf5gP+Fjd4Y0C2rY/j7l/nl7tpCo1KgQw2U3agKOiElB3HcoxY73TBIVHzQDN54WPh7xxNKaWnDzc+Vr/d/aDzsPrQWHqjveTr8YiiqgeAu9PAsWmEb3S1xV0EfpvCayzsf4VNrYc8K/zAhG/Q0WVn8I59ayKcXhg9z04f7WIaVrhJ9Q/OHKdxHl+UVG4fdN+R9mMJxvC9JV71xwiX2tKUWDgeEEs5gGeGSZCJZuEqAld8yjFp0uES4XKRl//41ln28X33jFmmXizTpybEwekitKJNnm7mqYa/utfKSPmQ53o4uPTgqgbd66sgIXc1DoUZXexC5VXInE+WEOzA1mraece3kHPxFDwvf9WnJUYodlmzFVjia3GTphKX/EHncLc3gD+1ALuaWGyKMY8+f5BpkFayUokdg46jnxqYJJFdWjmsheAA2jtnFBEqnJVufywbkzG4eG0cjjYIjP0E0t7QBWTMbJ4xD/dhkspQpmziFGdzhPtMN/3EuRZdk0slm6ssCwXPbSvt7vGGL54ptBncGCJFt2INoCucbWYupfkCwcSy2+FfYw5lXiLyA4GngzDDMfUCzMkbF7kGWcGJO7J77FXbFesvyB0K4XF4oiBMUK3Kodw0CR4QVe0QYQldMWYprEPA9TR1DFXLF1LcIAyKdwILQJjYI5XKRtGmKuCCWSR5d4igmiOVurVrdfHtEEPnsu6n2rCsayNwia6RqqPSvaCCjvhyt9jJIBskgGSSDZJAMkkEySAYJDkJl46OBWC1ZESswkUBs9wnhLYxRQPC2YbPQCkwEEJzG5+mgTfKEB3Gwe1a30hEaxM1+Zs0KTFgQdzvMO6uBIUHcnoRtueKAIK7PJqvLN8FAfBRWmF3Ag/2B9HW5SH/59jAgHg8s/LriECB+j5A8XLF/ELzY6ko/rtg3iFOXWyG/d3PFnkEucMuJTXcbF+izlFclDnUNMsEnR7c2G7LH3NjANQhS7f8tQXiuIwzIfUS2BuE48yAgjxipB4h5eA0A8oxa+4AYAx7vII15RD8QQwjqG6S59N0XhByh/IKoux17g1Cu2PXydFPt7IcDEJvztjzhbdrdfJQTEOkJaJ6II5OaDKEjEMmZdKbwaSxdhQJnIFS6T7Zd/y58Ggt8GHcgVALW0cazAdFVXYIQOzPdbAWknIdTEGr65mJzJuXOHYNQZ4T6bpelB9iAIP02MKcE0mdLeWIgtpv8EwQhjl2Yz/ilBSI+CJMsiOxoEhdk7RNkATu9GvVhl1sp/Y0Csclqz7kgIyIq5hzfu9lTqz0sq7UrIjJvPxhHxeYDlfUIygaxOglOnOPoPhj3m3quimPm+2lwLsjRhmNwlYBQUTE+dFw9zudzQU5WIF8yEOoUHNBzsOGCWO59wH0LPFhWBamxF4EJsrXjGBykIJL6vUqpBCaI9eIPPJpPPJhXBalSi1fwQOwLilRobkE+mFEFqR2JsUA2PVaxxmAsoR9sWv/rbtThgBx77RxY6ElMD6aCKl0dEQbIEZaD5Gml3UZnfjCKWvRBsbm9be+dHNqCd5wvqB0FQcbI2J6TYpqazAjPODumot/FZm4PZ1yE6mRGmH5fjVqIIjtkey4LzrYzf9yQopHLo4pVUu25rguolrpmh91PV0zX48Pteag63SxkwAe5VyIwlW5C7XnaWNMoLiwAuU20jSVW9O35q5b7rDspAzFL1x6r4KO1HssWAUA8lDFV9bOe4x0E16d2qJupeAYJdcFKufYKcgh45Y3yJNcg0ZRBMognZZAM4kk4j8dWnxK4DqXd/iJQQjf2SIpGdpTUjT3kRJaU93stpOIXjWwqxfv3cLIHKtUbEeEuAaCE76iU3MCX+AW73PsLXuDKY9aNEi9xCbX5jo+0bxBsaE6W0w58eVg/4VsH/KarPAishHhPV7mX7taB9G6fZWnc2tu4STEe4Wm2fi4RTT+SvyWUVrU6nPejxeuZRlZWVlZWVlZWVlZWFlP/AVSTbQcFKJEMAAAAAElFTkSuQmCC;" vertex="1" parent="1">
          <mxGeometry x="460.28" y="510" width="20" height="20" as="geometry" />
        </mxCell>
        <mxCell id="9BaGIX8ByUa0XlQMX_Im-72" value="" style="shape=image;verticalLabelPosition=bottom;labelBackgroundColor=default;verticalAlign=top;aspect=fixed;imageAspect=0;image=data:image/png,iVBORw0KGgoAAAANSUhEUgAAAMgAAADICAMAAACahl6sAAAAYFBMVEX///9MTEx4eHjDw8Ph4eGVlZVQUFDn5+f29vbr6+tTU1NsbGzV1dVcXFze3t6hoaFjY2OHh4fx8fFycnJnZ2e7u7urq6vY2NjIyMhXV1dqamqOjo60tLSEhISjo6Obm5uMk3ubAAAG/ElEQVR4nO2d6XbqOgyFCWNomZoChcPQ93/LSwqlceItS44n7vL+24WTL7VkWbblwSArKysrKysrKysrK+t/qtlitD8fVlXs9+inw6X41eY6i/021tptC0Wncew3stLivWhrOnm9Hjb/6GDUOp5jv5hM5Xqq5bhpu4j9cgLtlgij1uVVrP7rk8KoTeW7jP2ODAHjULVM3lTK6xuD46Z/aZvKiDQOVQmbyspkHKqm6zRNZX4SYdRa7mK/dFflnmkcqt6TMxVLkBRtvrLoWol6YamxJzwujjZ8jmHSQT17QNwcYr+qSSwv/LZPt1f9yRg0Fqd57HdUNIO9gw7j8dhxiBG11HOnIXowYSp4NJ8Ni+k1eJe7f3TsQUE0j39Qfv9MKjcjX2+s1d+IgT/wVzf5gP+Fjd4Y0C2rY/j7l/nl7tpCo1KgQw2U3agKOiElB3HcoxY73TBIVHzQDN54WPh7xxNKaWnDzc+Vr/d/aDzsPrQWHqjveTr8YiiqgeAu9PAsWmEb3S1xV0EfpvCayzsf4VNrYc8K/zAhG/Q0WVn8I59ayKcXhg9z04f7WIaVrhJ9Q/OHKdxHl+UVG4fdN+R9mMJxvC9JV71xwiX2tKUWDgeEEs5gGeGSZCJZuEqAld8yjFp0uES4XKRl//41ln28X33jFmmXizTpybEwekitKJNnm7mqYa/utfKSPmQ53o4uPTgqgbd66sgIXc1DoUZXexC5VXInE+WEOzA1mraece3kHPxFDwvf9WnJUYodlmzFVjia3GTphKX/EHncLc3gD+1ALuaWGyKMY8+f5BpkFayUokdg46jnxqYJJFdWjmsheAA2jtnFBEqnJVufywbkzG4eG0cjjYIjP0E0t7QBWTMbJ4xD/dhkspQpmziFGdzhPtMN/3EuRZdk0slm6ssCwXPbSvt7vGGL54ptBncGCJFt2INoCucbWYupfkCwcSy2+FfYw5lXiLyA4GngzDDMfUCzMkbF7kGWcGJO7J77FXbFesvyB0K4XF4oiBMUK3Kodw0CR4QVe0QYQldMWYprEPA9TR1DFXLF1LcIAyKdwILQJjYI5XKRtGmKuCCWSR5d4igmiOVurVrdfHtEEPnsu6n2rCsayNwia6RqqPSvaCCjvhyt9jJIBskgGSSDZJAMkkEySAYJDkJl46OBWC1ZESswkUBs9wnhLYxRQPC2YbPQCkwEEJzG5+mgTfKEB3Gwe1a30hEaxM1+Zs0KTFgQdzvMO6uBIUHcnoRtueKAIK7PJqvLN8FAfBRWmF3Ag/2B9HW5SH/59jAgHg8s/LriECB+j5A8XLF/ELzY6ko/rtg3iFOXWyG/d3PFnkEucMuJTXcbF+izlFclDnUNMsEnR7c2G7LH3NjANQhS7f8tQXiuIwzIfUS2BuE48yAgjxipB4h5eA0A8oxa+4AYAx7vII15RD8QQwjqG6S59N0XhByh/IKoux17g1Cu2PXydFPt7IcDEJvztjzhbdrdfJQTEOkJaJ6II5OaDKEjEMmZdKbwaSxdhQJnIFS6T7Zd/y58Ggt8GHcgVALW0cazAdFVXYIQOzPdbAWknIdTEGr65mJzJuXOHYNQZ4T6bpelB9iAIP02MKcE0mdLeWIgtpv8EwQhjl2Yz/ilBSI+CJMsiOxoEhdk7RNkATu9GvVhl1sp/Y0Csclqz7kgIyIq5hzfu9lTqz0sq7UrIjJvPxhHxeYDlfUIygaxOglOnOPoPhj3m3quimPm+2lwLsjRhmNwlYBQUTE+dFw9zudzQU5WIF8yEOoUHNBzsOGCWO59wH0LPFhWBamxF4EJsrXjGBykIJL6vUqpBCaI9eIPPJpPPJhXBalSi1fwQOwLilRobkE+mFEFqR2JsUA2PVaxxmAsoR9sWv/rbtThgBx77RxY6ElMD6aCKl0dEQbIEZaD5Gml3UZnfjCKWvRBsbm9be+dHNqCd5wvqB0FQcbI2J6TYpqazAjPODumot/FZm4PZ1yE6mRGmH5fjVqIIjtkey4LzrYzf9yQopHLo4pVUu25rguolrpmh91PV0zX48Pteag63SxkwAe5VyIwlW5C7XnaWNMoLiwAuU20jSVW9O35q5b7rDspAzFL1x6r4KO1HssWAUA8lDFV9bOe4x0E16d2qJupeAYJdcFKufYKcgh45Y3yJNcg0ZRBMognZZAM4kk4j8dWnxK4DqXd/iJQQjf2SIpGdpTUjT3kRJaU93stpOIXjWwqxfv3cLIHKtUbEeEuAaCE76iU3MCX+AW73PsLXuDKY9aNEi9xCbX5jo+0bxBsaE6W0w58eVg/4VsH/KarPAishHhPV7mX7taB9G6fZWnc2tu4STEe4Wm2fi4RTT+SvyWUVrU6nPejxeuZRlZWVlZWVlZWVlZWFlP/AVSTbQcFKJEMAAAAAElFTkSuQmCC;" vertex="1" parent="1">
          <mxGeometry x="590" y="510" width="20" height="20" as="geometry" />
        </mxCell>
        <mxCell id="9BaGIX8ByUa0XlQMX_Im-73" value="" style="shape=image;verticalLabelPosition=bottom;labelBackgroundColor=default;verticalAlign=top;aspect=fixed;imageAspect=0;image=data:image/png,iVBORw0KGgoAAAANSUhEUgAAAMgAAADICAMAAACahl6sAAAAYFBMVEX///9MTEx4eHjDw8Ph4eGVlZVQUFDn5+f29vbr6+tTU1NsbGzV1dVcXFze3t6hoaFjY2OHh4fx8fFycnJnZ2e7u7urq6vY2NjIyMhXV1dqamqOjo60tLSEhISjo6Obm5uMk3ubAAAG/ElEQVR4nO2d6XbqOgyFCWNomZoChcPQ93/LSwqlceItS44n7vL+24WTL7VkWbblwSArKysrKysrKysrK+t/qtlitD8fVlXs9+inw6X41eY6i/021tptC0Wncew3stLivWhrOnm9Hjb/6GDUOp5jv5hM5Xqq5bhpu4j9cgLtlgij1uVVrP7rk8KoTeW7jP2ODAHjULVM3lTK6xuD46Z/aZvKiDQOVQmbyspkHKqm6zRNZX4SYdRa7mK/dFflnmkcqt6TMxVLkBRtvrLoWol6YamxJzwujjZ8jmHSQT17QNwcYr+qSSwv/LZPt1f9yRg0Fqd57HdUNIO9gw7j8dhxiBG11HOnIXowYSp4NJ8Ni+k1eJe7f3TsQUE0j39Qfv9MKjcjX2+s1d+IgT/wVzf5gP+Fjd4Y0C2rY/j7l/nl7tpCo1KgQw2U3agKOiElB3HcoxY73TBIVHzQDN54WPh7xxNKaWnDzc+Vr/d/aDzsPrQWHqjveTr8YiiqgeAu9PAsWmEb3S1xV0EfpvCayzsf4VNrYc8K/zAhG/Q0WVn8I59ayKcXhg9z04f7WIaVrhJ9Q/OHKdxHl+UVG4fdN+R9mMJxvC9JV71xwiX2tKUWDgeEEs5gGeGSZCJZuEqAld8yjFp0uES4XKRl//41ln28X33jFmmXizTpybEwekitKJNnm7mqYa/utfKSPmQ53o4uPTgqgbd66sgIXc1DoUZXexC5VXInE+WEOzA1mraece3kHPxFDwvf9WnJUYodlmzFVjia3GTphKX/EHncLc3gD+1ALuaWGyKMY8+f5BpkFayUokdg46jnxqYJJFdWjmsheAA2jtnFBEqnJVufywbkzG4eG0cjjYIjP0E0t7QBWTMbJ4xD/dhkspQpmziFGdzhPtMN/3EuRZdk0slm6ssCwXPbSvt7vGGL54ptBncGCJFt2INoCucbWYupfkCwcSy2+FfYw5lXiLyA4GngzDDMfUCzMkbF7kGWcGJO7J77FXbFesvyB0K4XF4oiBMUK3Kodw0CR4QVe0QYQldMWYprEPA9TR1DFXLF1LcIAyKdwILQJjYI5XKRtGmKuCCWSR5d4igmiOVurVrdfHtEEPnsu6n2rCsayNwia6RqqPSvaCCjvhyt9jJIBskgGSSDZJAMkkEySAYJDkJl46OBWC1ZESswkUBs9wnhLYxRQPC2YbPQCkwEEJzG5+mgTfKEB3Gwe1a30hEaxM1+Zs0KTFgQdzvMO6uBIUHcnoRtueKAIK7PJqvLN8FAfBRWmF3Ag/2B9HW5SH/59jAgHg8s/LriECB+j5A8XLF/ELzY6ko/rtg3iFOXWyG/d3PFnkEucMuJTXcbF+izlFclDnUNMsEnR7c2G7LH3NjANQhS7f8tQXiuIwzIfUS2BuE48yAgjxipB4h5eA0A8oxa+4AYAx7vII15RD8QQwjqG6S59N0XhByh/IKoux17g1Cu2PXydFPt7IcDEJvztjzhbdrdfJQTEOkJaJ6II5OaDKEjEMmZdKbwaSxdhQJnIFS6T7Zd/y58Ggt8GHcgVALW0cazAdFVXYIQOzPdbAWknIdTEGr65mJzJuXOHYNQZ4T6bpelB9iAIP02MKcE0mdLeWIgtpv8EwQhjl2Yz/ilBSI+CJMsiOxoEhdk7RNkATu9GvVhl1sp/Y0Csclqz7kgIyIq5hzfu9lTqz0sq7UrIjJvPxhHxeYDlfUIygaxOglOnOPoPhj3m3quimPm+2lwLsjRhmNwlYBQUTE+dFw9zudzQU5WIF8yEOoUHNBzsOGCWO59wH0LPFhWBamxF4EJsrXjGBykIJL6vUqpBCaI9eIPPJpPPJhXBalSi1fwQOwLilRobkE+mFEFqR2JsUA2PVaxxmAsoR9sWv/rbtThgBx77RxY6ElMD6aCKl0dEQbIEZaD5Gml3UZnfjCKWvRBsbm9be+dHNqCd5wvqB0FQcbI2J6TYpqazAjPODumot/FZm4PZ1yE6mRGmH5fjVqIIjtkey4LzrYzf9yQopHLo4pVUu25rguolrpmh91PV0zX48Pteag63SxkwAe5VyIwlW5C7XnaWNMoLiwAuU20jSVW9O35q5b7rDspAzFL1x6r4KO1HssWAUA8lDFV9bOe4x0E16d2qJupeAYJdcFKufYKcgh45Y3yJNcg0ZRBMognZZAM4kk4j8dWnxK4DqXd/iJQQjf2SIpGdpTUjT3kRJaU93stpOIXjWwqxfv3cLIHKtUbEeEuAaCE76iU3MCX+AW73PsLXuDKY9aNEi9xCbX5jo+0bxBsaE6W0w58eVg/4VsH/KarPAishHhPV7mX7taB9G6fZWnc2tu4STEe4Wm2fi4RTT+SvyWUVrU6nPejxeuZRlZWVlZWVlZWVlZWFlP/AVSTbQcFKJEMAAAAAElFTkSuQmCC;" vertex="1" parent="1">
          <mxGeometry x="720" y="510" width="20" height="20" as="geometry" />
        </mxCell>
        <mxCell id="9BaGIX8ByUa0XlQMX_Im-77" value="Mahasiswa" style="text;html=1;align=center;verticalAlign=middle;resizable=0;points=[];autosize=1;strokeColor=none;fillColor=none;" vertex="1" parent="1">
          <mxGeometry x="300" y="70" width="80" height="30" as="geometry" />
        </mxCell>
        <mxCell id="9BaGIX8ByUa0XlQMX_Im-78" value="Orang Tua Wali" style="text;html=1;align=center;verticalAlign=middle;resizable=0;points=[];autosize=1;strokeColor=none;fillColor=none;" vertex="1" parent="1">
          <mxGeometry x="465.14" y="70" width="110" height="30" as="geometry" />
        </mxCell>
      </root>
    </mxGraphModel>
  </diagram>
</mxfile>
